<svg width="24" height="14" viewBox="0 0 24 14" fill="none" xmlns="http://www.w3.org/2000/svg">
<g clip-path="url(#clip0_12_61)">
<circle cx="11" cy="7" r="7" fill="#FFE173"/>
<path d="M2.39656 7.38281C2.2351 5.34635 2.15438 3.8125 2.15438 2.78125L2.17 2.5C2.17521 2.41146 2.17781 2.3099 2.17781 2.19531C2.17781 1.69531 1.99292 1.44531 1.62313 1.44531L1.45125 1.45312C1.39396 1.45833 1.32885 1.46094 1.25594 1.46094C0.953854 1.46094 0.802813 1.34635 0.802813 1.11719C0.802813 0.835938 1.2325 0.695312 2.09188 0.695312C2.53979 0.695312 2.81323 0.783854 2.91219 0.960938C2.84969 1.2474 2.81844 1.47135 2.81844 1.63281C2.81844 1.98177 2.8601 2.47135 2.94344 3.10156C3.02156 3.7474 3.06063 4.23698 3.06063 4.57031C3.06063 5.45052 3.11792 6.71094 3.2325 8.35156C3.34708 10.0026 3.40438 11.2682 3.40438 12.1484V12.25C3.43563 12.2448 3.4851 12.2396 3.55281 12.2344C3.62573 12.224 3.71167 12.2161 3.81063 12.2109C3.85229 12.2057 3.91219 12.2031 3.99031 12.2031V12.1953C4.44344 12.1953 4.67 12.3281 4.67 12.5938C4.67 12.9062 4.06323 13.0625 2.84969 13.0625H2.59188C2.53458 13.0677 2.46167 13.0703 2.37313 13.0703C2.18563 13.0703 2.05542 13.0417 1.9825 12.9844C1.90958 12.9271 1.87313 12.8099 1.87313 12.6328C1.87313 12.5078 1.89917 12.4271 1.95125 12.3906C2.00333 12.349 2.11531 12.3281 2.28719 12.3281C2.52156 12.3281 2.63875 12.2396 2.63875 12.0625C2.63875 10.9792 2.55802 9.41927 2.39656 7.38281Z" fill="#F7C460"/>
<path d="M6.875 10.4062C6.56771 11.1667 6.32812 11.8073 6.15625 12.3281C6.80729 12.2188 7.4375 12.1641 8.04688 12.1641C8.27083 12.3255 8.38281 12.4766 8.38281 12.6172C8.38281 12.7318 8.3125 12.849 8.17188 12.9688C7.90104 12.9688 7.49479 12.9922 6.95312 13.0391C6.4375 13.0911 6.03125 13.1172 5.73438 13.1172C5.57812 13.1172 5.4401 13.0729 5.32031 12.9844C5.20573 12.8906 5.14844 12.7734 5.14844 12.6328V12.5703C5.27865 12.4193 5.39062 12.2422 5.48438 12.0391C5.58333 11.8359 5.6875 11.5833 5.79688 11.2812C5.89583 10.9896 5.97396 10.7839 6.03125 10.6641C6.66146 9.26302 7.11979 8.0026 7.40625 6.88281C7.69271 5.76302 7.83594 4.58333 7.83594 3.34375C7.83594 2.01042 7.58073 1.32292 7.07031 1.28125C6.98177 1.32812 6.90625 1.42448 6.84375 1.57031C6.78646 1.71615 6.74479 1.875 6.71875 2.04688C6.69271 2.21354 6.63802 2.35417 6.55469 2.46875C6.47656 2.57812 6.3724 2.63281 6.24219 2.63281C5.98177 2.63281 5.85156 2.46875 5.85156 2.14062C5.85156 1.91146 5.88802 1.6875 5.96094 1.46875C6.03385 1.24479 6.14844 1.04688 6.30469 0.875C6.46615 0.697917 6.65885 0.609375 6.88281 0.609375V0.601562C7.22656 0.601562 7.53125 0.679688 7.79688 0.835938C7.96354 0.934896 8.13281 1.14062 8.30469 1.45312C8.39844 1.61979 8.47656 1.89844 8.53906 2.28906C8.5651 2.5026 8.58594 2.80208 8.60156 3.1875V3.61719C8.60156 4.34115 8.51302 5.13021 8.33594 5.98438C8.16406 6.83333 7.95573 7.58854 7.71094 8.25C7.40885 9.05729 7.13021 9.77604 6.875 10.4062Z" fill="#F89BFF"/>
<path d="M11.9394 3.34375C11.9602 3.59896 11.9706 3.89062 11.9706 4.21875C11.9706 4.35938 11.9472 4.50521 11.9003 4.65625C11.8586 4.80729 11.8092 4.92969 11.7519 5.02344L11.4941 5.40625L11.2519 5.75781C11.4967 5.90365 11.7128 6.15885 11.9003 6.52344C12.0878 6.88802 12.231 7.3099 12.33 7.78906C12.5019 8.66927 12.5878 9.46615 12.5878 10.1797C12.5878 10.6172 12.5618 11.0443 12.5097 11.4609C12.4784 11.7005 12.4264 11.9115 12.3534 12.0938C12.2805 12.276 12.1816 12.4557 12.0566 12.6328C11.942 12.8047 11.7883 12.9349 11.5956 13.0234C11.4029 13.112 11.1816 13.1562 10.9316 13.1562C10.5253 13.1562 10.2024 13.0521 9.96281 12.8438C9.82219 12.724 9.75187 12.5781 9.75187 12.4062C9.75187 12.2969 9.7675 12.2266 9.79875 12.1953C9.83 12.1589 9.90292 12.1406 10.0175 12.1406C10.106 12.1406 10.179 12.1693 10.2362 12.2266C10.3196 12.3151 10.4003 12.3828 10.4784 12.4297C10.5618 12.4766 10.6711 12.5 10.8066 12.5C11.4576 12.5 11.7831 11.901 11.7831 10.7031C11.7831 10.1771 11.7753 9.77344 11.7597 9.49219C11.7493 9.21094 11.7154 8.86979 11.6581 8.46875C11.5435 7.625 11.2597 6.92448 10.8066 6.36719C10.7649 6.3776 10.7102 6.38281 10.6425 6.38281C10.5071 6.38281 10.3899 6.35417 10.2909 6.29688C10.1972 6.23958 10.1503 6.15885 10.1503 6.05469C10.1503 5.96094 10.1972 5.84635 10.2909 5.71094C10.3847 5.57552 10.5097 5.42188 10.6659 5.25C10.8014 5.09896 10.9185 4.91146 11.0175 4.6875C11.1217 4.45833 11.1737 4.23438 11.1737 4.01562C11.1737 3.61979 11.1269 3.13281 11.0331 2.55469C10.981 2.23177 10.8925 1.96875 10.7675 1.76562C10.6425 1.5625 10.4993 1.46094 10.3378 1.46094C10.218 1.46094 10.1139 1.50521 10.0253 1.59375C9.93677 1.68229 9.87167 1.78906 9.83 1.91406C9.78833 2.03906 9.72062 2.14844 9.62687 2.24219C9.53312 2.33073 9.41854 2.375 9.28312 2.375C9.16333 2.375 9.05917 2.33333 8.97062 2.25C8.88208 2.16667 8.8274 2.0625 8.80656 1.9375C8.9576 1.5625 9.16854 1.26562 9.43937 1.04688C9.71021 0.822917 10.0201 0.710938 10.3691 0.710938C10.6139 0.710938 10.8352 0.789062 11.0331 0.945312C11.2362 1.10156 11.3977 1.30729 11.5175 1.5625C11.6217 1.80208 11.7102 2.08594 11.7831 2.41406C11.8612 2.73698 11.9133 3.04688 11.9394 3.34375Z" fill="#F085A4"/>
<path d="M17.3623 7.032C17.4743 7.168 17.5903 7.62 17.7103 8.388C18.1583 7.868 18.5783 7.424 18.9703 7.056C19.2743 6.752 19.4983 6.6 19.6423 6.6C19.8823 6.6 20.0023 6.72 20.0023 6.96C20.0023 7.04 19.9623 7.16 19.8823 7.32C19.8023 7.48 19.7623 7.6 19.7623 7.68C19.7623 8.32 20.0823 8.64 20.7223 8.64C21.1943 8.64 21.5903 8.472 21.9103 8.136C22.2383 7.8 22.4023 7.488 22.4023 7.2C22.4023 7.04 22.3103 6.868 22.1263 6.684C21.9503 6.5 21.7703 6.348 21.5863 6.228C21.4103 6.108 21.3223 5.992 21.3223 5.88C21.3223 5.64 21.4423 5.52 21.6823 5.52C21.7783 5.52 21.8983 5.568 22.0423 5.664C22.3703 5.872 22.6303 6.116 22.8223 6.396C23.0223 6.676 23.1223 6.944 23.1223 7.2C23.1223 7.68 22.8903 8.16 22.4263 8.64C21.9623 9.12 21.3943 9.36 20.7223 9.36C19.7943 9.36 19.2383 8.904 19.0543 7.992C18.9023 8.136 18.4943 8.592 17.8303 9.36C17.9183 10.112 17.9623 10.88 17.9623 11.664C17.9623 11.984 17.8623 12.244 17.6623 12.444C17.4623 12.644 17.2023 12.744 16.8823 12.744C16.5623 12.744 16.3023 12.64 16.1023 12.432C15.9023 12.232 15.8023 11.968 15.8023 11.64C15.8023 11.016 16.2303 10.176 17.0863 9.12C17.0543 8.84 16.9863 8.44 16.8823 7.92C16.7303 8.12 16.4983 8.332 16.1863 8.556C15.8823 8.772 15.5503 8.88 15.1903 8.88C14.8383 8.88 14.5303 8.736 14.2663 8.448C14.0103 8.16 13.8823 7.824 13.8823 7.44C13.8823 6.576 14.0583 5.84 14.4103 5.232C14.7703 4.624 15.1623 4.32 15.5863 4.32C15.9383 4.32 16.2063 4.384 16.3903 4.512C16.5743 4.64 16.6663 4.776 16.6663 4.92C16.6663 5.16 16.5463 5.28 16.3063 5.28C16.2503 5.28 16.1663 5.24 16.0543 5.16C15.9503 5.08 15.7943 5.04 15.5863 5.04C15.4743 5.04 15.3423 5.136 15.1903 5.328C15.0463 5.52 14.9103 5.808 14.7823 6.192C14.6623 6.576 14.6023 6.992 14.6023 7.44C14.6023 7.616 14.6623 7.78 14.7823 7.932C14.9023 8.084 15.0423 8.16 15.2023 8.16C15.5703 8.16 15.9183 7.96 16.2463 7.56C16.5743 7.16 16.8663 6.96 17.1223 6.96C17.2423 6.96 17.3223 6.984 17.3623 7.032ZM17.2423 11.664L17.1823 10.188C16.7423 10.836 16.5223 11.304 16.5223 11.592C16.5223 11.88 16.6423 12.024 16.8823 12.024C17.1223 12.024 17.2423 11.904 17.2423 11.664Z" fill="#9384F6"/>
</g>
<defs>
<clipPath id="clip0_12_61">
<rect width="24" height="14" fill="white"/>
</clipPath>
</defs>
</svg>
