<svg width="293" height="87" viewBox="0 0 293 87" fill="none" xmlns="http://www.w3.org/2000/svg">
<path d="M26.8807 31.3141C40.4707 31.7941 47.1806 20.1341 60.7406 25.3541C75.7706 31.1541 77.1707 53.7341 66.9107 67.3841C56.6607 81.0441 45.2806 85.8441 28.9905 85.1241C8.76055 84.2341 0.530579 68.314 1.02058 51.944C1.50058 35.574 10.7507 30.3441 26.8807 31.3141Z" fill="#F0673F"/>
<mask id="mask0_8327_889" style="mask-type:luminance" maskUnits="userSpaceOnUse" x="1" y="24" width="73" height="62">
<path d="M26.8807 31.3141C40.4707 31.7941 47.1806 20.1341 60.7406 25.3541C75.7706 31.1541 77.1707 53.7341 66.9107 67.3841C56.6607 81.0441 45.2806 85.8441 28.9905 85.1241C8.76055 84.2341 0.530579 68.314 1.02058 51.944C1.50058 35.574 10.7507 30.3441 26.8807 31.3141Z" fill="white"/>
<path d="M26.8807 31.3141C40.4707 31.7941 47.1806 20.1341 60.7406 25.3541C75.7706 31.1541 77.1707 53.7341 66.9107 67.3841C56.6607 81.0441 45.2806 85.8441 28.9905 85.1241C8.76055 84.2341 0.530579 68.314 1.02058 51.944C1.50058 35.574 10.7507 30.3441 26.8807 31.3141Z" fill="white"/>
</mask>
<g mask="url(#mask0_8327_889)">
<path opacity="0.43" d="M73.5301 10.4639C51.6001 25.7939 59.7002 35.5739 44.1302 40.7239C28.5602 45.8739 17.8401 35.324 1.2601 58.084C-15.3299 80.844 -11.8998 63.7139 -11.8998 63.7139L-3.18985 26.374C-3.18985 26.374 90.9201 -1.69614 73.5301 10.4639Z" fill="#F9B534"/>
</g>
<path d="M26.8807 31.3141C40.4707 31.7941 47.1806 20.1341 60.7406 25.3541C75.7706 31.1541 77.1707 53.7341 66.9107 67.3841C56.6607 81.0441 45.2806 85.8441 28.9905 85.1241C8.76055 84.2341 0.530579 68.314 1.02058 51.944C1.50058 35.574 10.7507 30.3441 26.8807 31.3141Z" stroke="#B84D46" stroke-width="2" stroke-miterlimit="10" stroke-linecap="round"/>
<path d="M36.3208 9.90403C43.3808 4.16403 50.8408 1.27389 53.2908 1.00389C53.7808 0.953886 54.1908 1.39401 54.0908 1.88401C53.6708 3.89401 47.3608 10.554 39.8708 15.344C30.1108 21.584 26.6008 22.344 26.6008 22.344L26.3408 21.2839C26.3408 21.2839 27.5408 17.034 36.3208 9.90403Z" fill="#C3E231" stroke="#B84D46" stroke-width="2" stroke-miterlimit="10" stroke-linecap="round"/>
<path d="M26.6002 10.4639C26.6002 10.4639 25.1602 19.124 28.1202 28.574C31.0802 38.024 32.0401 37.5439 32.0401 37.5439" stroke="#B84D46" stroke-width="2" stroke-miterlimit="10" stroke-linecap="round"/>
<path d="M19.7402 37.554C19.7402 37.554 31.5604 38.7639 39.8604 36.7139" stroke="#B84D46" stroke-width="2" stroke-miterlimit="10" stroke-linecap="round"/>
<path d="M135.881 31.3141C149.471 31.7941 156.181 20.1341 169.741 25.3541C184.771 31.1541 186.171 53.7341 175.911 67.3841C165.661 81.0441 154.281 85.8441 137.991 85.1241C117.761 84.2341 109.531 68.314 110.021 51.944C110.501 35.574 119.751 30.3441 135.881 31.3141Z" fill="#F0673F"/>
<mask id="mask1_8327_889" style="mask-type:luminance" maskUnits="userSpaceOnUse" x="110" y="24" width="73" height="62">
<path d="M135.881 31.3141C149.471 31.7941 156.181 20.1341 169.741 25.3541C184.771 31.1541 186.171 53.7341 175.911 67.3841C165.661 81.0441 154.281 85.8441 137.991 85.1241C117.761 84.2341 109.531 68.314 110.021 51.944C110.501 35.574 119.751 30.3441 135.881 31.3141Z" fill="white"/>
<path d="M135.881 31.3141C149.471 31.7941 156.181 20.1341 169.741 25.3541C184.771 31.1541 186.171 53.7341 175.911 67.3841C165.661 81.0441 154.281 85.8441 137.991 85.1241C117.761 84.2341 109.531 68.314 110.021 51.944C110.501 35.574 119.751 30.3441 135.881 31.3141Z" fill="white"/>
</mask>
<g mask="url(#mask1_8327_889)">
<path opacity="0.43" d="M182.53 10.4639C160.6 25.7939 168.7 35.5739 153.13 40.7239C137.56 45.8739 126.84 35.324 110.26 58.084C93.6701 80.844 97.1002 63.7139 97.1002 63.7139L105.81 26.374C105.81 26.374 199.92 -1.69614 182.53 10.4639Z" fill="#F9B534"/>
</g>
<path d="M135.881 31.3141C149.471 31.7941 156.181 20.1341 169.741 25.3541C184.771 31.1541 186.171 53.7341 175.911 67.3841C165.661 81.0441 154.281 85.8441 137.991 85.1241C117.761 84.2341 109.531 68.314 110.021 51.944C110.501 35.574 119.751 30.3441 135.881 31.3141Z" stroke="#B84D46" stroke-width="2" stroke-miterlimit="10" stroke-linecap="round"/>
<path d="M145.321 9.90403C152.381 4.16403 159.841 1.27389 162.291 1.00389C162.781 0.953886 163.191 1.39401 163.091 1.88401C162.671 3.89401 156.361 10.554 148.871 15.344C139.111 21.584 135.601 22.344 135.601 22.344L135.341 21.2839C135.341 21.2839 136.541 17.034 145.321 9.90403Z" fill="#C3E231" stroke="#B84D46" stroke-width="2" stroke-miterlimit="10" stroke-linecap="round"/>
<path d="M135.6 10.4639C135.6 10.4639 134.16 19.124 137.12 28.574C140.08 38.024 141.04 37.5439 141.04 37.5439" stroke="#B84D46" stroke-width="2" stroke-miterlimit="10" stroke-linecap="round"/>
<path d="M128.74 37.554C128.74 37.554 140.56 38.7639 148.86 36.7139" stroke="#B84D46" stroke-width="2" stroke-miterlimit="10" stroke-linecap="round"/>
<path d="M244.881 31.3141C258.471 31.7941 265.181 20.1341 278.741 25.3541C293.771 31.1541 295.171 53.7341 284.911 67.3841C274.661 81.0441 263.281 85.8441 246.991 85.1241C226.761 84.2341 218.531 68.314 219.021 51.944C219.501 35.574 228.751 30.3441 244.881 31.3141Z" fill="#F0673F"/>
<mask id="mask2_8327_889" style="mask-type:luminance" maskUnits="userSpaceOnUse" x="219" y="24" width="73" height="62">
<path d="M244.881 31.3141C258.471 31.7941 265.181 20.1341 278.741 25.3541C293.771 31.1541 295.171 53.7341 284.911 67.3841C274.661 81.0441 263.281 85.8441 246.991 85.1241C226.761 84.2341 218.531 68.314 219.021 51.944C219.501 35.574 228.751 30.3441 244.881 31.3141Z" fill="white"/>
<path d="M244.881 31.3141C258.471 31.7941 265.181 20.1341 278.741 25.3541C293.771 31.1541 295.171 53.7341 284.911 67.3841C274.661 81.0441 263.281 85.8441 246.991 85.1241C226.761 84.2341 218.531 68.314 219.021 51.944C219.501 35.574 228.751 30.3441 244.881 31.3141Z" fill="white"/>
</mask>
<g mask="url(#mask2_8327_889)">
<path opacity="0.43" d="M291.53 10.4639C269.6 25.7939 277.7 35.5739 262.13 40.7239C246.56 45.8739 235.84 35.324 219.26 58.084C202.67 80.844 206.1 63.7139 206.1 63.7139L214.81 26.374C214.81 26.374 308.92 -1.69614 291.53 10.4639Z" fill="#F9B534"/>
</g>
<path d="M244.881 31.3141C258.471 31.7941 265.181 20.1341 278.741 25.3541C293.771 31.1541 295.171 53.7341 284.911 67.3841C274.661 81.0441 263.281 85.8441 246.991 85.1241C226.761 84.2341 218.531 68.314 219.021 51.944C219.501 35.574 228.751 30.3441 244.881 31.3141Z" stroke="#B84D46" stroke-width="2" stroke-miterlimit="10" stroke-linecap="round"/>
<path d="M254.321 9.90403C261.381 4.16403 268.841 1.27389 271.291 1.00389C271.781 0.953886 272.191 1.39401 272.091 1.88401C271.671 3.89401 265.361 10.554 257.871 15.344C248.111 21.584 244.601 22.344 244.601 22.344L244.341 21.2839C244.341 21.2839 245.541 17.034 254.321 9.90403Z" fill="#C3E231" stroke="#B84D46" stroke-width="2" stroke-miterlimit="10" stroke-linecap="round"/>
<path d="M244.6 10.4639C244.6 10.4639 243.16 19.124 246.12 28.574C249.08 38.024 250.04 37.5439 250.04 37.5439" stroke="#B84D46" stroke-width="2" stroke-miterlimit="10" stroke-linecap="round"/>
<path d="M237.74 37.554C237.74 37.554 249.56 38.7639 257.86 36.7139" stroke="#B84D46" stroke-width="2" stroke-miterlimit="10" stroke-linecap="round"/>
</svg>
