<svg width="75" height="87" viewBox="0 0 75 87" fill="none" xmlns="http://www.w3.org/2000/svg">
<path d="M26.8807 31.3141C40.4707 31.7941 47.1806 20.1341 60.7406 25.3541C75.7706 31.1541 77.1707 53.7341 66.9107 67.3841C56.6607 81.0441 45.2806 85.8441 28.9905 85.1241C8.76055 84.2341 0.530579 68.314 1.02058 51.944C1.50058 35.574 10.7507 30.3441 26.8807 31.3141Z" fill="#F0673F"/>
<mask id="mask0_8339_526" style="mask-type:luminance" maskUnits="userSpaceOnUse" x="1" y="24" width="73" height="62">
<path d="M26.8807 31.3141C40.4707 31.7941 47.1806 20.1341 60.7406 25.3541C75.7706 31.1541 77.1707 53.7341 66.9107 67.3841C56.6607 81.0441 45.2806 85.8441 28.9905 85.1241C8.76055 84.2341 0.530579 68.314 1.02058 51.944C1.50058 35.574 10.7507 30.3441 26.8807 31.3141Z" fill="white"/>
<path d="M26.8807 31.3141C40.4707 31.7941 47.1806 20.1341 60.7406 25.3541C75.7706 31.1541 77.1707 53.7341 66.9107 67.3841C56.6607 81.0441 45.2806 85.8441 28.9905 85.1241C8.76055 84.2341 0.530579 68.314 1.02058 51.944C1.50058 35.574 10.7507 30.3441 26.8807 31.3141Z" fill="white"/>
</mask>
<g mask="url(#mask0_8339_526)">
<path opacity="0.43" d="M73.5301 10.4639C51.6001 25.7939 59.7002 35.5739 44.1302 40.7239C28.5602 45.8739 17.8401 35.324 1.2601 58.084C-15.3299 80.844 -11.8998 63.7139 -11.8998 63.7139L-3.18985 26.374C-3.18985 26.374 90.9201 -1.69614 73.5301 10.4639Z" fill="#F9B534"/>
</g>
<path d="M26.8807 31.3141C40.4707 31.7941 47.1806 20.1341 60.7406 25.3541C75.7706 31.1541 77.1707 53.7341 66.9107 67.3841C56.6607 81.0441 45.2806 85.8441 28.9905 85.1241C8.76055 84.2341 0.530579 68.314 1.02058 51.944C1.50058 35.574 10.7507 30.3441 26.8807 31.3141Z" stroke="#B84D46" stroke-width="2" stroke-miterlimit="10" stroke-linecap="round"/>
<path d="M36.3208 9.90403C43.3808 4.16403 50.8408 1.27389 53.2908 1.00389C53.7808 0.953886 54.1908 1.39401 54.0908 1.88401C53.6708 3.89401 47.3608 10.554 39.8708 15.344C30.1108 21.584 26.6008 22.344 26.6008 22.344L26.3408 21.2839C26.3408 21.2839 27.5408 17.034 36.3208 9.90403Z" fill="#C3E231" stroke="#B84D46" stroke-width="2" stroke-miterlimit="10" stroke-linecap="round"/>
<path d="M26.6002 10.4639C26.6002 10.4639 25.1602 19.124 28.1202 28.574C31.0802 38.024 32.0401 37.5439 32.0401 37.5439" stroke="#B84D46" stroke-width="2" stroke-miterlimit="10" stroke-linecap="round"/>
<path d="M19.7402 37.554C19.7402 37.554 31.5604 38.7639 39.8604 36.7139" stroke="#B84D46" stroke-width="2" stroke-miterlimit="10" stroke-linecap="round"/>
</svg>
