<svg width="354" height="94" viewBox="0 0 354 94" fill="none" xmlns="http://www.w3.org/2000/svg">
<g clip-path="url(#clip0_8329_1239)">
<path fill-rule="evenodd" clip-rule="evenodd" d="M26.2903 7.60004C49.9203 -6.00896 79.2002 0.531998 91.6902 22.211C104.17 43.889 95.1403 72.495 71.5103 86.104C47.8703 99.713 18.6004 93.171 6.11041 71.493C-6.36959 49.815 2.66035 21.209 26.2903 7.60004Z" fill="#69BAE9"/>
<mask id="mask0_8329_1239" style="mask-type:luminance" maskUnits="userSpaceOnUse" x="0" y="0" width="98" height="94">
<path d="M26.2903 7.60004C49.9203 -6.00896 79.2002 0.531998 91.6902 22.211C104.17 43.889 95.1403 72.495 71.5103 86.104C47.8703 99.713 18.6004 93.171 6.11041 71.493C-6.36959 49.815 2.66035 21.209 26.2903 7.60004Z" fill="white"/>
<path d="M26.2903 7.60004C49.9203 -6.00896 79.2002 0.531998 91.6902 22.211C104.17 43.889 95.1403 72.495 71.5103 86.104C47.8703 99.713 18.6004 93.171 6.11041 71.493C-6.36959 49.815 2.66035 21.209 26.2903 7.60004Z" fill="white"/>
</mask>
<g mask="url(#mask0_8329_1239)">
<path d="M98.2107 73.938C97.5207 62.768 95.3206 49.442 88.1306 40.351C77.4806 26.89 62.8906 22.505 48.9006 23.838C45.7206 24.141 41.1606 32.694 38.6406 34.657C40.9406 35.58 41.9708 37.218 43.8408 38.608C68.4208 56.838 75.9708 80.552 66.5208 97.236C66.2708 97.678 73.8908 94.168 74.7808 93.767C83.0308 90.067 92.9007 81.415 98.2107 73.938Z" fill="#F2673F" stroke="#99140B" stroke-miterlimit="10"/>
<path d="M-7.26953 64.281C-0.629531 44.413 7.3106 39.864 25.6106 33.247C26.9606 34.784 30.5106 37.158 32.3406 38.13C28.8206 39.936 26.8905 42.241 26.2605 45.796C19.2605 85.514 26.8404 87.725 33.2104 97.16C22.0604 90.648 -2.72953 77.925 -7.26953 64.281Z" fill="#F2673F" stroke="#99140B" stroke-miterlimit="10"/>
<path d="M62.8901 -4.29797C52.4701 2.24003 47.4004 5.11902 41.6204 18.598L41.8403 18.706C38.2603 18.095 33.5703 21.384 30.5203 23.838C29.2803 21.931 26.3402 10.949 16.9102 5.66803C27.9902 1.46103 49.8001 -2.65397 62.8901 -4.29797Z" fill="#F2673F" stroke="#99140B" stroke-miterlimit="10"/>
<path fill-rule="evenodd" clip-rule="evenodd" d="M28.6205 14.554C38.7105 8.741 50.3803 10.071 54.6703 17.526C58.9603 24.981 54.5403 35.107 44.4403 40.921C34.3503 46.734 22.4105 46.034 18.1105 38.579C13.8205 31.124 18.5205 20.368 28.6205 14.554Z" fill="#FDBA34" stroke="#99140B" stroke-miterlimit="10"/>
<path opacity="0.43" d="M92.8108 23.61C94.5608 28.135 86.4706 15.48 66.6506 7.90503C50.6206 1.78103 31.3608 9.90503 32.8008 4.41003C33.6808 1.04203 48.8806 -5.61798 68.4207 -0.953982C82.6307 2.44002 92.6308 20.974 92.8108 23.61Z" fill="#DAF2D1"/>
<path opacity="0.36" d="M53.5603 21.981C53.5603 21.981 55.4602 29.405 45.6902 37.087C35.4202 45.172 24.9102 41.182 24.9102 41.182" stroke="#DAF2D1" stroke-width="3" stroke-miterlimit="10" stroke-linecap="round"/>
<path opacity="0.36" d="M32.7207 15.392C32.7207 15.392 34.8107 13.884 38.7207 13.444C43.2107 12.938 45.6907 13.6491 45.6907 13.6491" stroke="#DAF2D1" stroke-width="3" stroke-miterlimit="10" stroke-linecap="round"/>
</g>
<path d="M26.2903 7.60004C49.9203 -6.00896 79.2002 0.531998 91.6902 22.211C104.17 43.889 95.1403 72.495 71.5103 86.104C47.8703 99.713 18.6004 93.171 6.11041 71.493C-6.36959 49.815 2.66035 21.209 26.2903 7.60004Z" stroke="#99140B" stroke-miterlimit="10"/>
<path fill-rule="evenodd" clip-rule="evenodd" d="M153.792 7.60004C177.422 -6.00896 206.702 0.531998 219.192 22.211C231.672 43.889 222.642 72.495 199.012 86.104C175.372 99.713 146.102 93.171 133.612 71.493C121.132 49.815 130.162 21.209 153.792 7.60004Z" fill="#69BAE9"/>
<mask id="mask1_8329_1239" style="mask-type:luminance" maskUnits="userSpaceOnUse" x="128" y="0" width="97" height="94">
<path d="M153.792 7.60004C177.422 -6.00896 206.702 0.531998 219.192 22.211C231.672 43.889 222.642 72.495 199.012 86.104C175.372 99.713 146.102 93.171 133.612 71.493C121.132 49.815 130.162 21.209 153.792 7.60004Z" fill="white"/>
<path d="M153.792 7.60004C177.422 -6.00896 206.702 0.531998 219.192 22.211C231.672 43.889 222.642 72.495 199.012 86.104C175.372 99.713 146.102 93.171 133.612 71.493C121.132 49.815 130.162 21.209 153.792 7.60004Z" fill="white"/>
</mask>
<g mask="url(#mask1_8329_1239)">
<path d="M225.713 73.938C225.023 62.768 222.823 49.442 215.633 40.351C204.983 26.89 190.393 22.505 176.403 23.838C173.223 24.141 168.663 32.694 166.143 34.657C168.443 35.58 169.473 37.218 171.343 38.608C195.923 56.838 203.473 80.552 194.023 97.236C193.773 97.678 201.393 94.168 202.283 93.767C210.533 90.067 220.403 81.415 225.713 73.938Z" fill="#F2673F" stroke="#99140B" stroke-miterlimit="10"/>
<path d="M120.232 64.281C126.872 44.413 134.813 39.864 153.113 33.247C154.463 34.784 158.013 37.158 159.843 38.13C156.323 39.936 154.392 42.241 153.762 45.796C146.762 85.514 154.342 87.725 160.712 97.16C149.562 90.648 124.772 77.925 120.232 64.281Z" fill="#F2673F" stroke="#99140B" stroke-miterlimit="10"/>
<path d="M190.392 -4.29797C179.972 2.24003 174.902 5.11902 169.122 18.598L169.342 18.706C165.762 18.095 161.072 21.384 158.022 23.838C156.782 21.931 153.842 10.949 144.412 5.66803C155.492 1.46103 177.302 -2.65397 190.392 -4.29797Z" fill="#F2673F" stroke="#99140B" stroke-miterlimit="10"/>
<path fill-rule="evenodd" clip-rule="evenodd" d="M156.122 14.554C166.212 8.741 177.882 10.071 182.172 17.526C186.462 24.981 182.042 35.107 171.942 40.921C161.852 46.734 149.912 46.034 145.612 38.579C141.322 31.124 146.022 20.368 156.122 14.554Z" fill="#FDBA34" stroke="#99140B" stroke-miterlimit="10"/>
<path opacity="0.43" d="M220.313 23.61C222.063 28.135 213.973 15.48 194.153 7.90503C178.123 1.78103 158.863 9.90503 160.303 4.41003C161.183 1.04203 176.383 -5.61798 195.923 -0.953982C210.133 2.44002 220.133 20.974 220.313 23.61Z" fill="#DAF2D1"/>
<path opacity="0.36" d="M181.062 21.981C181.062 21.981 182.962 29.405 173.192 37.087C162.922 45.172 152.412 41.182 152.412 41.182" stroke="#DAF2D1" stroke-width="3" stroke-miterlimit="10" stroke-linecap="round"/>
<path opacity="0.36" d="M160.223 15.392C160.223 15.392 162.313 13.884 166.223 13.444C170.713 12.938 173.193 13.6491 173.193 13.6491" stroke="#DAF2D1" stroke-width="3" stroke-miterlimit="10" stroke-linecap="round"/>
</g>
<path d="M153.792 7.60004C177.422 -6.00896 206.702 0.531998 219.192 22.211C231.672 43.889 222.642 72.495 199.012 86.104C175.372 99.713 146.102 93.171 133.612 71.493C121.132 49.815 130.162 21.209 153.792 7.60004Z" stroke="#99140B" stroke-miterlimit="10"/>
<path fill-rule="evenodd" clip-rule="evenodd" d="M281.792 7.60004C305.422 -6.00896 334.702 0.531998 347.192 22.211C359.672 43.889 350.642 72.495 327.012 86.104C303.372 99.713 274.102 93.171 261.612 71.493C249.132 49.815 258.162 21.209 281.792 7.60004Z" fill="#69BAE9"/>
<mask id="mask2_8329_1239" style="mask-type:luminance" maskUnits="userSpaceOnUse" x="256" y="0" width="97" height="94">
<path d="M281.792 7.60004C305.422 -6.00896 334.702 0.531998 347.192 22.211C359.672 43.889 350.642 72.495 327.012 86.104C303.372 99.713 274.102 93.171 261.612 71.493C249.132 49.815 258.162 21.209 281.792 7.60004Z" fill="white"/>
<path d="M281.792 7.60004C305.422 -6.00896 334.702 0.531998 347.192 22.211C359.672 43.889 350.642 72.495 327.012 86.104C303.372 99.713 274.102 93.171 261.612 71.493C249.132 49.815 258.162 21.209 281.792 7.60004Z" fill="white"/>
</mask>
<g mask="url(#mask2_8329_1239)">
<path d="M353.713 73.938C353.023 62.768 350.823 49.442 343.633 40.351C332.983 26.89 318.393 22.505 304.403 23.838C301.223 24.141 296.663 32.694 294.143 34.657C296.443 35.58 297.473 37.218 299.343 38.608C323.923 56.838 331.473 80.552 322.023 97.236C321.773 97.678 329.393 94.168 330.283 93.767C338.533 90.067 348.403 81.415 353.713 73.938Z" fill="#F2673F" stroke="#99140B" stroke-miterlimit="10"/>
<path d="M248.232 64.281C254.872 44.413 262.813 39.864 281.113 33.247C282.463 34.784 286.013 37.158 287.843 38.13C284.323 39.936 282.392 42.241 281.762 45.796C274.762 85.514 282.342 87.725 288.712 97.16C277.562 90.648 252.772 77.925 248.232 64.281Z" fill="#F2673F" stroke="#99140B" stroke-miterlimit="10"/>
<path d="M318.392 -4.29797C307.972 2.24003 302.902 5.11902 297.122 18.598L297.342 18.706C293.762 18.095 289.072 21.384 286.022 23.838C284.782 21.931 281.842 10.949 272.412 5.66803C283.492 1.46103 305.302 -2.65397 318.392 -4.29797Z" fill="#F2673F" stroke="#99140B" stroke-miterlimit="10"/>
<path fill-rule="evenodd" clip-rule="evenodd" d="M284.122 14.554C294.212 8.741 305.882 10.071 310.172 17.526C314.462 24.981 310.042 35.107 299.942 40.921C289.852 46.734 277.912 46.034 273.612 38.579C269.322 31.124 274.022 20.368 284.122 14.554Z" fill="#FDBA34" stroke="#99140B" stroke-miterlimit="10"/>
<path opacity="0.43" d="M348.313 23.61C350.063 28.135 341.973 15.48 322.153 7.90503C306.123 1.78103 286.863 9.90503 288.303 4.41003C289.183 1.04203 304.383 -5.61798 323.923 -0.953982C338.133 2.44002 348.133 20.974 348.313 23.61Z" fill="#DAF2D1"/>
<path opacity="0.36" d="M309.062 21.981C309.062 21.981 310.962 29.405 301.192 37.087C290.922 45.172 280.412 41.182 280.412 41.182" stroke="#DAF2D1" stroke-width="3" stroke-miterlimit="10" stroke-linecap="round"/>
<path opacity="0.36" d="M288.223 15.392C288.223 15.392 290.313 13.884 294.223 13.444C298.713 12.938 301.193 13.6491 301.193 13.6491" stroke="#DAF2D1" stroke-width="3" stroke-miterlimit="10" stroke-linecap="round"/>
</g>
<path d="M281.792 7.60004C305.422 -6.00896 334.702 0.531998 347.192 22.211C359.672 43.889 350.642 72.495 327.012 86.104C303.372 99.713 274.102 93.171 261.612 71.493C249.132 49.815 258.162 21.209 281.792 7.60004Z" stroke="#99140B" stroke-miterlimit="10"/>
</g>
<defs>
<clipPath id="clip0_8329_1239">
<rect width="354" height="94" fill="white"/>
</clipPath>
</defs>
</svg>
