<svg width="558" height="76" viewBox="0 0 558 76" fill="none" xmlns="http://www.w3.org/2000/svg">
<path d="M153.605 35.5325C153.605 35.5325 171.108 29.9584 172.932 23.8369C174.752 17.7109 172.382 7.42942 166.33 8.23657C160.274 9.04742 158.461 13.2473 150.42 21.8682C146.342 26.2432 140.402 31.0589 138.624 31.9202C136.845 32.7856 132.224 33.2593 132.224 33.2593L134.379 48.1205C134.379 48.1205 134.812 53.212 138.471 57.4858C142.134 61.7601 145.645 65.0831 151.044 67.8608C156.443 70.6384 180.947 72.8721 166.745 61.153C160.814 56.2575 155.713 53.6032 155.713 53.6032C155.713 53.6032 169.028 49.7614 167.482 43.3628C165.933 36.9639 153.605 35.5325 153.605 35.5325Z" fill="#7CACDB"/>
<mask id="mask0_8339_511" style="mask-type:luminance" maskUnits="userSpaceOnUse" x="132" y="8" width="42" height="63">
<path d="M153.605 35.5325C153.605 35.5325 171.108 29.9584 172.932 23.8369C174.752 17.7109 172.382 7.42942 166.33 8.23657C160.274 9.04742 158.461 13.2473 150.42 21.8682C146.342 26.2432 140.402 31.0589 138.624 31.9202C136.845 32.7856 132.224 33.2593 132.224 33.2593L134.379 48.1205C134.379 48.1205 134.812 53.212 138.471 57.4858C142.134 61.7601 145.645 65.0831 151.044 67.8608C156.443 70.6384 180.947 72.8721 166.745 61.153C160.814 56.2575 155.713 53.6032 155.713 53.6032C155.713 53.6032 169.028 49.7614 167.482 43.3628C165.933 36.9639 153.605 35.5325 153.605 35.5325Z" fill="white"/>
<path d="M153.605 35.5325C153.605 35.5325 171.108 29.9584 172.932 23.8369C174.752 17.7109 172.382 7.42942 166.33 8.23657C160.274 9.04742 158.461 13.2473 150.42 21.8682C146.342 26.2432 140.402 31.0589 138.624 31.9202C136.845 32.7856 132.224 33.2593 132.224 33.2593L134.379 48.1205C134.379 48.1205 134.812 53.212 138.471 57.4858C142.134 61.7601 145.645 65.0831 151.044 67.8608C156.443 70.6384 180.947 72.8721 166.745 61.153C160.814 56.2575 155.713 53.6032 155.713 53.6032C155.713 53.6032 169.028 49.7614 167.482 43.3628C165.933 36.9639 153.605 35.5325 153.605 35.5325Z" fill="white"/>
</mask>
<g mask="url(#mask0_8339_511)">
<path d="M136.432 17.7074C138.624 31.9203 145.704 34.3266 133.435 56.9543" stroke="#AA4642" stroke-width="2" stroke-miterlimit="10" stroke-linecap="round"/>
</g>
<path d="M153.605 35.5325C153.605 35.5325 171.108 29.9584 172.932 23.8369C174.752 17.7109 172.382 7.42942 166.33 8.23657C160.274 9.04742 158.461 13.2473 150.42 21.8682C146.342 26.2432 140.402 31.0589 138.624 31.9202C136.845 32.7856 132.224 33.2593 132.224 33.2593L134.379 48.1205C134.379 48.1205 134.812 53.212 138.471 57.4858C142.134 61.7601 145.645 65.0831 151.044 67.8608C156.443 70.6384 180.947 72.8721 166.745 61.153C160.814 56.2575 155.713 53.6032 155.713 53.6032C155.713 53.6032 169.028 49.7614 167.482 43.3628C165.933 36.9639 153.605 35.5325 153.605 35.5325Z" stroke="#AA4642" stroke-width="3" stroke-miterlimit="10" stroke-linecap="round"/>
<path d="M64.0095 42.1617C54.8694 27.3458 33.8227 11.7906 24.3425 6.08916C14.8624 0.387677 -0.472162 -0.271176 10.3807 13.5906C21.2377 27.4527 34.5989 36.4879 34.5989 36.4879C34.5989 36.4879 14.7604 26.544 7.12856 32.2251C-0.499239 37.9067 3.22469 44.7365 6.25446 46.1446C9.28462 47.5486 19.7715 50.4047 29.8751 48.2978C31.058 48.0521 14.5248 52.6751 11.0851 56.4553C7.6455 60.2354 8.17745 68.1708 15.1513 68.3307C22.1248 68.4948 38.3133 65.749 46.0951 60.9156C53.8769 56.0822 63.624 60.0722 63.624 60.0722C63.624 60.0722 67.6242 48.0198 64.0095 42.1617Z" fill="#7CACDB"/>
<mask id="mask1_8339_511" style="mask-type:luminance" maskUnits="userSpaceOnUse" x="2" y="2" width="64" height="67">
<path d="M64.0095 42.1617C54.8694 27.3458 33.8227 11.7906 24.3425 6.08915C14.8624 0.387669 -0.472162 -0.271184 10.3807 13.5906C21.2377 27.4527 34.5989 36.4879 34.5989 36.4879C34.5989 36.4879 14.7604 26.544 7.12856 32.2251C-0.499239 37.9067 3.22469 44.7365 6.25446 46.1446C9.28462 47.5486 19.7715 50.4047 29.8751 48.2978C31.058 48.0521 14.5248 52.6751 11.0851 56.4553C7.6455 60.2354 8.17745 68.1708 15.1513 68.3307C22.1248 68.4947 38.3133 65.749 46.0951 60.9156C53.8769 56.0822 63.624 60.0722 63.624 60.0722C63.624 60.0722 67.6242 48.0198 64.0095 42.1617Z" fill="white"/>
<path d="M64.0095 42.1617C54.8694 27.3458 33.8227 11.7906 24.3425 6.08915C14.8624 0.387669 -0.472162 -0.271184 10.3807 13.5906C21.2377 27.4527 34.5989 36.4879 34.5989 36.4879C34.5989 36.4879 14.7604 26.544 7.12856 32.2251C-0.499239 37.9067 3.22469 44.7365 6.25446 46.1446C9.28462 47.5486 19.7715 50.4047 29.8751 48.2978C31.058 48.0521 14.5248 52.6751 11.0851 56.4553C7.6455 60.2354 8.17745 68.1708 15.1513 68.3307C22.1248 68.4947 38.3133 65.749 46.0951 60.9156C53.8769 56.0822 63.624 60.0722 63.624 60.0722C63.624 60.0722 67.6242 48.0198 64.0095 42.1617Z" fill="white"/>
</mask>
<g mask="url(#mask1_8339_511)">
<path d="M61.8317 21.9842C56.1936 32.0522 44.0113 41.4361 57.2996 68.0033" stroke="#AA4642" stroke-width="2" stroke-miterlimit="10" stroke-linecap="round"/>
</g>
<path d="M64.0095 42.1617C54.8694 27.3458 33.8227 11.7906 24.3425 6.08916C14.8624 0.387677 -0.472161 -0.271176 10.3807 13.5906C21.2377 27.4527 34.5989 36.4879 34.5989 36.4879C34.5989 36.4879 14.7604 26.544 7.12856 32.2251C-0.499239 37.9067 3.22469 44.7365 6.25446 46.1446C9.28462 47.5486 19.7715 50.4047 29.8751 48.2979C31.058 48.0521 14.5248 52.6751 11.0851 56.4553C7.6455 60.2354 8.17745 68.1708 15.1513 68.3307C22.1248 68.4948 38.3133 65.749 46.0951 60.9156C53.8769 56.0822 63.624 60.0722 63.624 60.0722C63.624 60.0722 67.6242 48.0198 64.0095 42.1617Z" stroke="#AA4642" stroke-width="3" stroke-miterlimit="10" stroke-linecap="round"/>
<path fill-rule="evenodd" clip-rule="evenodd" d="M92.0573 17.5989C114.032 14.4084 133.655 24.274 135.882 39.6289C138.109 54.9839 122.102 70.0213 100.124 73.2073C82.1954 75.8113 66.8165 71.175 60.1882 60.5066C58.69 58.0982 58.0058 51.2787 57.9286 48.4204C57.7671 42.4348 58.2838 39.4064 59.9078 36.0177C64.5633 26.3013 77.5853 19.6961 92.0573 17.5989Z" fill="#7CACDB"/>
<mask id="mask2_8339_511" style="mask-type:luminance" maskUnits="userSpaceOnUse" x="57" y="16" width="80" height="58">
<path d="M92.0573 17.5989C114.032 14.4084 133.655 24.274 135.882 39.6289C138.109 54.9839 122.102 70.0213 100.124 73.2073C82.1954 75.8113 66.8165 71.175 60.1882 60.5066C58.69 58.0982 58.0058 51.2787 57.9286 48.4204C57.7671 42.4349 58.2838 39.4064 59.9078 36.0177C64.5633 26.3013 77.5853 19.6961 92.0573 17.5989Z" fill="white"/>
<path d="M92.0573 17.5989C114.032 14.4084 133.655 24.274 135.882 39.6289C138.109 54.9839 122.102 70.0213 100.124 73.2073C82.1954 75.8113 66.8165 71.175 60.1882 60.5066C58.69 58.0982 58.0058 51.2787 57.9286 48.4204C57.7671 42.4349 58.2838 39.4064 59.9078 36.0177C64.5633 26.3013 77.5853 19.6961 92.0573 17.5989Z" fill="white"/>
</mask>
<g mask="url(#mask2_8339_511)">
<path d="M104.503 -7.4216C94.4694 14.8631 99.4452 29.3919 61.4025 74.4691" stroke="#AA4642" stroke-width="2" stroke-miterlimit="10" stroke-linecap="round"/>
<path d="M125.208 0.270118C115.174 22.5549 120.154 37.084 82.1076 82.1608" stroke="#AA4642" stroke-width="2" stroke-miterlimit="10" stroke-linecap="round"/>
<path d="M136.092 1.78204C126.058 24.0668 131.038 38.596 92.9914 83.6727" stroke="#AA4642" stroke-width="2" stroke-miterlimit="10" stroke-linecap="round"/>
<path opacity="0.19" d="M133.349 56.3642C133.317 52.0867 138.418 38.6173 132.851 37.6348C124.465 36.1515 123.582 53.185 101.7 63.5633C84.5157 71.7094 64.3728 61.497 65.5307 69.4882C67.1643 80.743 125.085 73.6527 133.349 56.3642Z" fill="#DAF2D1"/>
</g>
<path d="M92.0573 17.5989C114.032 14.4084 133.655 24.274 135.882 39.6289C138.109 54.9839 122.102 70.0213 100.124 73.2073C82.1954 75.8113 66.8165 71.175 60.1882 60.5066C58.69 58.0982 58.0058 51.2787 57.9286 48.4204C57.7671 42.4348 58.2838 39.4064 59.9078 36.0177C64.5633 26.3013 77.5853 19.6961 92.0573 17.5989Z" stroke="#AA4642" stroke-width="3" stroke-miterlimit="10" stroke-linecap="round"/>
<path d="M344.27 35.5325C344.27 35.5325 361.773 29.9584 363.597 23.8369C365.417 17.7109 363.047 7.42941 356.995 8.23656C350.939 9.04741 349.126 13.2473 341.085 21.8682C337.007 26.2432 331.067 31.0589 329.289 31.9202C327.51 32.7856 322.889 33.2593 322.889 33.2593L325.044 48.1205C325.044 48.1205 325.477 53.212 329.136 57.4858C332.799 61.7601 336.31 65.0831 341.709 67.8608C347.108 70.6384 371.612 72.8721 357.41 61.153C351.479 56.2575 346.378 53.6032 346.378 53.6032C346.378 53.6032 359.693 49.7613 358.147 43.3628C356.598 36.9639 344.27 35.5325 344.27 35.5325Z" fill="#7CACDB"/>
<mask id="mask3_8339_511" style="mask-type:luminance" maskUnits="userSpaceOnUse" x="322" y="8" width="43" height="63">
<path d="M344.27 35.5325C344.27 35.5325 361.773 29.9584 363.597 23.8369C365.417 17.7109 363.047 7.42941 356.995 8.23656C350.939 9.04741 349.126 13.2473 341.085 21.8682C337.007 26.2432 331.067 31.0589 329.289 31.9202C327.51 32.7856 322.889 33.2593 322.889 33.2593L325.044 48.1205C325.044 48.1205 325.477 53.212 329.136 57.4858C332.799 61.7601 336.31 65.0831 341.709 67.8608C347.108 70.6384 371.612 72.8721 357.41 61.153C351.479 56.2575 346.378 53.6032 346.378 53.6032C346.378 53.6032 359.693 49.7613 358.147 43.3628C356.598 36.9639 344.27 35.5325 344.27 35.5325Z" fill="white"/>
<path d="M344.27 35.5325C344.27 35.5325 361.773 29.9584 363.597 23.8369C365.417 17.7109 363.047 7.42941 356.995 8.23656C350.939 9.04741 349.126 13.2473 341.085 21.8682C337.007 26.2432 331.067 31.0589 329.289 31.9202C327.51 32.7856 322.889 33.2593 322.889 33.2593L325.044 48.1205C325.044 48.1205 325.477 53.212 329.136 57.4858C332.799 61.7601 336.31 65.0831 341.709 67.8608C347.108 70.6384 371.612 72.8721 357.41 61.153C351.479 56.2575 346.378 53.6032 346.378 53.6032C346.378 53.6032 359.693 49.7613 358.147 43.3628C356.598 36.9639 344.27 35.5325 344.27 35.5325Z" fill="white"/>
</mask>
<g mask="url(#mask3_8339_511)">
<path d="M327.097 17.7074C329.289 31.9203 336.37 34.3266 324.1 56.9543" stroke="#AA4642" stroke-width="2" stroke-miterlimit="10" stroke-linecap="round"/>
</g>
<path d="M344.27 35.5325C344.27 35.5325 361.773 29.9584 363.597 23.8369C365.417 17.7109 363.047 7.42941 356.995 8.23656C350.939 9.04741 349.126 13.2473 341.085 21.8682C337.007 26.2432 331.067 31.0589 329.289 31.9202C327.51 32.7856 322.889 33.2593 322.889 33.2593L325.044 48.1205C325.044 48.1205 325.477 53.212 329.136 57.4858C332.799 61.7601 336.31 65.0831 341.709 67.8608C347.108 70.6384 371.612 72.8721 357.41 61.153C351.479 56.2575 346.378 53.6032 346.378 53.6032C346.378 53.6032 359.693 49.7613 358.147 43.3628C356.598 36.9639 344.27 35.5325 344.27 35.5325Z" stroke="#AA4642" stroke-width="3" stroke-miterlimit="10" stroke-linecap="round"/>
<path d="M254.676 42.1617C245.535 27.3458 224.489 11.7906 215.009 6.08916C205.528 0.387673 190.194 -0.27118 201.047 13.5906C211.904 27.4527 225.265 36.4879 225.265 36.4879C225.265 36.4879 205.426 26.544 197.795 32.2251C190.167 37.9067 193.891 44.7365 196.92 46.1446C199.951 47.5486 210.437 50.4047 220.541 48.2978C221.724 48.0521 205.191 52.6751 201.751 56.4553C198.312 60.2354 198.843 68.1708 205.817 68.3307C212.791 68.4947 228.979 65.749 236.761 60.9156C244.543 56.0822 254.29 60.0722 254.29 60.0722C254.29 60.0722 258.29 48.0198 254.676 42.1617Z" fill="#7CACDB"/>
<mask id="mask4_8339_511" style="mask-type:luminance" maskUnits="userSpaceOnUse" x="193" y="2" width="64" height="67">
<path d="M254.676 42.1617C245.535 27.3458 224.489 11.7906 215.009 6.08915C205.528 0.387666 190.194 -0.271188 201.047 13.5905C211.904 27.4527 225.265 36.4879 225.265 36.4879C225.265 36.4879 205.426 26.544 197.795 32.2251C190.167 37.9067 193.891 44.7365 196.92 46.1446C199.951 47.5486 210.437 50.4047 220.541 48.2978C221.724 48.0521 205.191 52.6751 201.751 56.4553C198.312 60.2354 198.843 68.1708 205.817 68.3307C212.791 68.4947 228.979 65.749 236.761 60.9156C244.543 56.0822 254.29 60.0722 254.29 60.0722C254.29 60.0722 258.29 48.0198 254.676 42.1617Z" fill="white"/>
<path d="M254.676 42.1617C245.535 27.3458 224.489 11.7906 215.009 6.08915C205.528 0.387666 190.194 -0.271188 201.047 13.5905C211.904 27.4527 225.265 36.4879 225.265 36.4879C225.265 36.4879 205.426 26.544 197.795 32.2251C190.167 37.9067 193.891 44.7365 196.92 46.1446C199.951 47.5486 210.437 50.4047 220.541 48.2978C221.724 48.0521 205.191 52.6751 201.751 56.4553C198.312 60.2354 198.843 68.1708 205.817 68.3307C212.791 68.4947 228.979 65.749 236.761 60.9156C244.543 56.0822 254.29 60.0722 254.29 60.0722C254.29 60.0722 258.29 48.0198 254.676 42.1617Z" fill="white"/>
</mask>
<g mask="url(#mask4_8339_511)">
<path d="M252.498 21.9842C246.86 32.0522 234.677 41.4361 247.966 68.0033" stroke="#AA4642" stroke-width="2" stroke-miterlimit="10" stroke-linecap="round"/>
</g>
<path d="M254.676 42.1617C245.535 27.3458 224.489 11.7906 215.009 6.08916C205.528 0.387673 190.194 -0.27118 201.047 13.5906C211.904 27.4527 225.265 36.4879 225.265 36.4879C225.265 36.4879 205.426 26.544 197.795 32.2251C190.167 37.9067 193.891 44.7365 196.92 46.1446C199.951 47.5486 210.437 50.4047 220.541 48.2978C221.724 48.0521 205.191 52.6751 201.751 56.4553C198.312 60.2354 198.843 68.1708 205.817 68.3307C212.791 68.4947 228.979 65.749 236.761 60.9156C244.543 56.0822 254.29 60.0722 254.29 60.0722C254.29 60.0722 258.29 48.0198 254.676 42.1617Z" stroke="#AA4642" stroke-width="3" stroke-miterlimit="10" stroke-linecap="round"/>
<path fill-rule="evenodd" clip-rule="evenodd" d="M282.722 17.5989C304.697 14.4084 324.32 24.274 326.547 39.6289C328.774 54.9839 312.767 70.0213 290.789 73.2073C272.86 75.8113 257.482 71.175 250.853 60.5066C249.355 58.0982 248.671 51.2787 248.594 48.4204C248.432 42.4348 248.949 39.4064 250.573 36.0177C255.228 26.3013 268.25 19.6961 282.722 17.5989Z" fill="#7CACDB"/>
<mask id="mask5_8339_511" style="mask-type:luminance" maskUnits="userSpaceOnUse" x="248" y="16" width="79" height="58">
<path d="M282.722 17.5989C304.697 14.4084 324.32 24.274 326.547 39.6289C328.774 54.9839 312.767 70.0213 290.789 73.2073C272.86 75.8113 257.482 71.175 250.853 60.5066C249.355 58.0982 248.671 51.2787 248.594 48.4204C248.432 42.4348 248.949 39.4064 250.573 36.0177C255.228 26.3013 268.25 19.6961 282.722 17.5989Z" fill="white"/>
<path d="M282.722 17.5989C304.697 14.4084 324.32 24.274 326.547 39.6289C328.774 54.9839 312.767 70.0213 290.789 73.2073C272.86 75.8113 257.482 71.175 250.853 60.5066C249.355 58.0982 248.671 51.2787 248.594 48.4204C248.432 42.4348 248.949 39.4064 250.573 36.0177C255.228 26.3013 268.25 19.6961 282.722 17.5989Z" fill="white"/>
</mask>
<g mask="url(#mask5_8339_511)">
<path d="M295.168 -7.4216C285.134 14.8631 290.11 29.3919 252.068 74.4691" stroke="#AA4642" stroke-width="2" stroke-miterlimit="10" stroke-linecap="round"/>
<path d="M315.873 0.270118C305.84 22.5549 310.819 37.084 272.773 82.1608" stroke="#AA4642" stroke-width="2" stroke-miterlimit="10" stroke-linecap="round"/>
<path d="M326.757 1.78204C316.723 24.0668 321.703 38.596 283.656 83.6727" stroke="#AA4642" stroke-width="2" stroke-miterlimit="10" stroke-linecap="round"/>
<path opacity="0.19" d="M324.014 56.3642C323.982 52.0867 329.083 38.6173 323.516 37.6348C315.13 36.1515 314.247 53.185 292.365 63.5633C275.181 71.7094 255.038 61.497 256.196 69.4882C257.829 80.743 315.75 73.6527 324.014 56.3642Z" fill="#DAF2D1"/>
</g>
<path d="M282.722 17.5989C304.697 14.4084 324.32 24.274 326.547 39.6289C328.774 54.9839 312.767 70.0213 290.789 73.2073C272.86 75.8113 257.482 71.175 250.853 60.5066C249.355 58.0982 248.671 51.2787 248.594 48.4204C248.432 42.4348 248.949 39.4064 250.573 36.0177C255.228 26.3013 268.25 19.6961 282.722 17.5989Z" stroke="#AA4642" stroke-width="3" stroke-miterlimit="10" stroke-linecap="round"/>
<path d="M534.936 35.5325C534.936 35.5325 552.439 29.9584 554.263 23.8369C556.083 17.7109 553.713 7.42941 547.661 8.23656C541.605 9.04741 539.792 13.2473 531.751 21.8682C527.673 26.2432 521.733 31.0589 519.955 31.9202C518.176 32.7856 513.555 33.2593 513.555 33.2593L515.71 48.1205C515.71 48.1205 516.143 53.212 519.802 57.4858C523.465 61.7601 526.976 65.0831 532.375 67.8608C537.774 70.6384 562.278 72.8721 548.076 61.153C542.145 56.2575 537.044 53.6032 537.044 53.6032C537.044 53.6032 550.359 49.7613 548.813 43.3628C547.264 36.9639 534.936 35.5325 534.936 35.5325Z" fill="#7CACDB"/>
<mask id="mask6_8339_511" style="mask-type:luminance" maskUnits="userSpaceOnUse" x="513" y="8" width="42" height="63">
<path d="M534.936 35.5325C534.936 35.5325 552.439 29.9584 554.263 23.8369C556.083 17.7109 553.713 7.42941 547.661 8.23656C541.605 9.04741 539.792 13.2473 531.751 21.8682C527.673 26.2432 521.733 31.0589 519.955 31.9202C518.176 32.7856 513.555 33.2593 513.555 33.2593L515.71 48.1205C515.71 48.1205 516.143 53.212 519.802 57.4858C523.465 61.7601 526.976 65.0831 532.375 67.8608C537.774 70.6384 562.278 72.8721 548.076 61.153C542.145 56.2575 537.044 53.6032 537.044 53.6032C537.044 53.6032 550.359 49.7613 548.813 43.3628C547.264 36.9639 534.936 35.5325 534.936 35.5325Z" fill="white"/>
<path d="M534.936 35.5325C534.936 35.5325 552.439 29.9584 554.263 23.8369C556.083 17.7109 553.713 7.42941 547.661 8.23656C541.605 9.04741 539.792 13.2473 531.751 21.8682C527.673 26.2432 521.733 31.0589 519.955 31.9202C518.176 32.7856 513.555 33.2593 513.555 33.2593L515.71 48.1205C515.71 48.1205 516.143 53.212 519.802 57.4858C523.465 61.7601 526.976 65.0831 532.375 67.8608C537.774 70.6384 562.278 72.8721 548.076 61.153C542.145 56.2575 537.044 53.6032 537.044 53.6032C537.044 53.6032 550.359 49.7613 548.813 43.3628C547.264 36.9639 534.936 35.5325 534.936 35.5325Z" fill="white"/>
</mask>
<g mask="url(#mask6_8339_511)">
<path d="M517.763 17.7074C519.955 31.9203 527.036 34.3266 514.766 56.9543" stroke="#AA4642" stroke-width="2" stroke-miterlimit="10" stroke-linecap="round"/>
</g>
<path d="M534.936 35.5325C534.936 35.5325 552.439 29.9584 554.263 23.8369C556.083 17.7109 553.713 7.42941 547.661 8.23656C541.605 9.04741 539.792 13.2473 531.751 21.8682C527.673 26.2432 521.733 31.0589 519.955 31.9202C518.176 32.7856 513.555 33.2593 513.555 33.2593L515.71 48.1205C515.71 48.1205 516.143 53.212 519.802 57.4858C523.465 61.7601 526.976 65.0831 532.375 67.8608C537.774 70.6384 562.278 72.8721 548.076 61.153C542.145 56.2575 537.044 53.6032 537.044 53.6032C537.044 53.6032 550.359 49.7613 548.813 43.3628C547.264 36.9639 534.936 35.5325 534.936 35.5325Z" stroke="#AA4642" stroke-width="3" stroke-miterlimit="10" stroke-linecap="round"/>
<path d="M445.342 42.1617C436.201 27.3458 415.155 11.7906 405.675 6.08915C396.194 0.387669 380.86 -0.271184 391.713 13.5906C402.57 27.4527 415.931 36.4879 415.931 36.4879C415.931 36.4879 396.092 26.544 388.461 32.2251C380.833 37.9067 384.557 44.7365 387.586 46.1446C390.617 47.5486 401.104 50.4047 411.207 48.2978C412.39 48.0521 395.857 52.6751 392.417 56.4553C388.978 60.2354 389.509 68.1708 396.483 68.3307C403.457 68.4947 419.645 65.749 427.427 60.9156C435.209 56.0822 444.956 60.0722 444.956 60.0722C444.956 60.0722 448.956 48.0198 445.342 42.1617Z" fill="#7CACDB"/>
<mask id="mask7_8339_511" style="mask-type:luminance" maskUnits="userSpaceOnUse" x="383" y="2" width="64" height="67">
<path d="M445.342 42.1617C436.201 27.3458 415.155 11.7906 405.675 6.08915C396.194 0.387662 380.86 -0.271191 391.713 13.5905C402.57 27.4527 415.931 36.4879 415.931 36.4879C415.931 36.4879 396.092 26.544 388.461 32.2251C380.833 37.9067 384.557 44.7365 387.586 46.1446C390.617 47.5486 401.104 50.4047 411.207 48.2978C412.39 48.0521 395.857 52.6751 392.417 56.4553C388.978 60.2354 389.509 68.1708 396.483 68.3307C403.457 68.4947 419.645 65.749 427.427 60.9156C435.209 56.0822 444.956 60.0722 444.956 60.0722C444.956 60.0722 448.956 48.0198 445.342 42.1617Z" fill="white"/>
<path d="M445.342 42.1617C436.201 27.3458 415.155 11.7906 405.675 6.08915C396.194 0.387662 380.86 -0.271191 391.713 13.5905C402.57 27.4527 415.931 36.4879 415.931 36.4879C415.931 36.4879 396.092 26.544 388.461 32.2251C380.833 37.9067 384.557 44.7365 387.586 46.1446C390.617 47.5486 401.104 50.4047 411.207 48.2978C412.39 48.0521 395.857 52.6751 392.417 56.4553C388.978 60.2354 389.509 68.1708 396.483 68.3307C403.457 68.4947 419.645 65.749 427.427 60.9156C435.209 56.0822 444.956 60.0722 444.956 60.0722C444.956 60.0722 448.956 48.0198 445.342 42.1617Z" fill="white"/>
</mask>
<g mask="url(#mask7_8339_511)">
<path d="M443.164 21.9842C437.526 32.0522 425.343 41.4361 438.632 68.0033" stroke="#AA4642" stroke-width="2" stroke-miterlimit="10" stroke-linecap="round"/>
</g>
<path d="M445.342 42.1617C436.201 27.3458 415.155 11.7906 405.675 6.08915C396.194 0.387669 380.86 -0.271184 391.713 13.5906C402.57 27.4527 415.931 36.4879 415.931 36.4879C415.931 36.4879 396.092 26.544 388.461 32.2251C380.833 37.9067 384.557 44.7365 387.586 46.1446C390.617 47.5486 401.104 50.4047 411.207 48.2978C412.39 48.0521 395.857 52.6751 392.417 56.4553C388.978 60.2354 389.509 68.1708 396.483 68.3307C403.457 68.4947 419.645 65.749 427.427 60.9156C435.209 56.0822 444.956 60.0722 444.956 60.0722C444.956 60.0722 448.956 48.0198 445.342 42.1617Z" stroke="#AA4642" stroke-width="3" stroke-miterlimit="10" stroke-linecap="round"/>
<path fill-rule="evenodd" clip-rule="evenodd" d="M473.388 17.5989C495.363 14.4084 514.986 24.274 517.213 39.6289C519.44 54.9839 503.433 70.0213 481.455 73.2073C463.526 75.8113 448.148 71.175 441.519 60.5066C440.021 58.0982 439.337 51.2787 439.26 48.4204C439.098 42.4348 439.615 39.4064 441.239 36.0177C445.894 26.3013 458.916 19.6961 473.388 17.5989Z" fill="#7CACDB"/>
<mask id="mask8_8339_511" style="mask-type:luminance" maskUnits="userSpaceOnUse" x="439" y="16" width="79" height="58">
<path d="M473.388 17.5989C495.363 14.4084 514.986 24.274 517.213 39.6289C519.44 54.9839 503.433 70.0213 481.455 73.2073C463.526 75.8113 448.148 71.175 441.519 60.5066C440.021 58.0982 439.337 51.2787 439.26 48.4204C439.098 42.4348 439.615 39.4064 441.239 36.0177C445.894 26.3013 458.916 19.6961 473.388 17.5989Z" fill="white"/>
<path d="M473.388 17.5989C495.363 14.4084 514.986 24.274 517.213 39.6289C519.44 54.9839 503.433 70.0213 481.455 73.2073C463.526 75.8113 448.148 71.175 441.519 60.5066C440.021 58.0982 439.337 51.2787 439.26 48.4204C439.098 42.4348 439.615 39.4064 441.239 36.0177C445.894 26.3013 458.916 19.6961 473.388 17.5989Z" fill="white"/>
</mask>
<g mask="url(#mask8_8339_511)">
<path d="M485.834 -7.42161C475.8 14.8631 480.776 29.3919 442.734 74.4691" stroke="#AA4642" stroke-width="2" stroke-miterlimit="10" stroke-linecap="round"/>
<path d="M506.539 0.270111C496.506 22.5549 501.485 37.084 463.439 82.1608" stroke="#AA4642" stroke-width="2" stroke-miterlimit="10" stroke-linecap="round"/>
<path d="M517.423 1.78204C507.389 24.0668 512.369 38.5959 474.322 83.6727" stroke="#AA4642" stroke-width="2" stroke-miterlimit="10" stroke-linecap="round"/>
<path opacity="0.19" d="M514.68 56.3642C514.648 52.0867 519.749 38.6173 514.182 37.6348C505.796 36.1515 504.913 53.185 483.031 63.5633C465.847 71.7094 445.704 61.497 446.862 69.4881C448.495 80.743 506.416 73.6527 514.68 56.3642Z" fill="#DAF2D1"/>
</g>
<path d="M473.388 17.5989C495.363 14.4084 514.986 24.274 517.213 39.6289C519.44 54.9839 503.433 70.0213 481.455 73.2073C463.526 75.8113 448.148 71.175 441.519 60.5066C440.021 58.0982 439.337 51.2787 439.26 48.4204C439.098 42.4348 439.615 39.4064 441.239 36.0177C445.894 26.3013 458.916 19.6961 473.388 17.5989Z" stroke="#AA4642" stroke-width="3" stroke-miterlimit="10" stroke-linecap="round"/>
</svg>
