<svg width="243" height="122" viewBox="0 0 243 122" fill="none" xmlns="http://www.w3.org/2000/svg">
<path d="M50.3804 64.3778C50.3804 67.9246 51.6247 74.0268 43.6438 78.9393C35.6556 83.8593 29.9129 86.0328 31.7829 94.7492C33.6603 103.458 34.7206 105.323 35.339 107.196C35.9648 109.061 40.8975 108.745 40.581 103.649C40.2717 98.5455 37.4004 91.8192 42.0829 89.9541C46.7581 88.0889 64.9138 82.9267 71.4075 83.3599C77.8938 83.7932 54.1867 65.6261 54.1867 65.6261C54.1867 65.6261 50.3804 60.8311 50.3804 64.3778Z" fill="#F4893B"/>
<mask id="mask0_8327_946" style="mask-type:luminance" maskUnits="userSpaceOnUse" x="31" y="63" width="42" height="46">
<path d="M50.3804 64.3778C50.3804 67.9246 51.6247 74.0268 43.6438 78.9393C35.6556 83.8593 29.9129 86.0328 31.7829 94.7492C33.6603 103.458 34.7206 105.323 35.339 107.196C35.9648 109.061 40.8975 108.745 40.581 103.649C40.2717 98.5455 37.4004 91.8192 42.0829 89.9541C46.7581 88.0889 64.9138 82.9267 71.4075 83.3599C77.8938 83.7932 54.1867 65.6261 54.1867 65.6261C54.1867 65.6261 50.3804 60.8311 50.3804 64.3778Z" fill="white"/>
<path d="M50.3804 64.3778C50.3804 67.9246 51.6247 74.0268 43.6438 78.9393C35.6556 83.8593 29.9129 86.0328 31.7829 94.7492C33.6603 103.458 34.7206 105.323 35.339 107.196C35.9648 109.061 40.8975 108.745 40.581 103.649C40.2717 98.5455 37.4004 91.8192 42.0829 89.9541C46.7581 88.0889 64.9138 82.9267 71.4075 83.3599C77.8938 83.7932 54.1867 65.6261 54.1867 65.6261C54.1867 65.6261 50.3804 60.8311 50.3804 64.3778Z" fill="white"/>
</mask>
<g mask="url(#mask0_8327_946)">
<path d="M38.3947 110.764C38.3358 103.385 37.8131 94.0001 37.3566 90.7031C36.9075 87.406 40.2795 87.1415 44.4981 81.5754C48.7168 76.0093 50.204 72.9032 49.8801 67.1462C49.5561 61.3891 64.4135 72.0001 64.4135 72.0001L68.8309 87.92L49.7548 96.6582C49.7548 96.6582 47.4947 105.118 45.1019 107.438C42.7017 109.766 38.4609 118.144 38.3947 110.764Z" fill="#FBCDB8"/>
</g>
<path d="M50.3804 64.3778C50.3804 67.9246 51.6247 74.0268 43.6438 78.9393C35.6556 83.8593 29.9129 86.0328 31.7829 94.7492C33.6603 103.458 34.7206 105.323 35.339 107.196C35.9648 109.061 40.8975 108.745 40.581 103.649C40.2717 98.5455 37.4004 91.8192 42.0829 89.9541C46.7581 88.0889 64.9138 82.9267 71.4075 83.3599C77.8938 83.7932 54.1867 65.6261 54.1867 65.6261C54.1867 65.6261 50.3804 60.8311 50.3804 64.3778Z" stroke="#62261A" stroke-width="2" stroke-miterlimit="10"/>
<path d="M114.646 73.2191C114.528 78.5502 112.644 82.8533 120.293 89.1463C127.943 95.4468 125.881 105.257 122.723 110.163C119.564 115.068 118.961 119.062 122.966 117.432C126.971 115.795 129.644 113.313 131.403 109.494C133.163 105.683 138.081 94.9034 140.024 89.6897C141.968 84.4834 118.592 73.0355 118.592 73.0355C118.592 73.0355 114.771 67.888 114.646 73.2191Z" fill="#F4893B"/>
<mask id="mask1_8327_946" style="mask-type:luminance" maskUnits="userSpaceOnUse" x="114" y="70" width="27" height="48">
<path d="M114.646 73.2191C114.528 78.5502 112.644 82.8533 120.293 89.1463C127.943 95.4468 125.881 105.257 122.723 110.163C119.564 115.068 118.961 119.062 122.966 117.432C126.971 115.795 129.644 113.313 131.403 109.494C133.163 105.683 138.081 94.9034 140.024 89.6897C141.968 84.4834 118.592 73.0355 118.592 73.0355C118.592 73.0355 114.771 67.888 114.646 73.2191Z" fill="white"/>
<path d="M114.646 73.2191C114.528 78.5502 112.644 82.8533 120.293 89.1463C127.943 95.4468 125.881 105.257 122.723 110.163C119.564 115.068 118.961 119.062 122.966 117.432C126.971 115.795 129.644 113.313 131.403 109.494C133.163 105.683 138.081 94.9034 140.024 89.6897C141.968 84.4834 118.592 73.0355 118.592 73.0355C118.592 73.0355 114.771 67.888 114.646 73.2191Z" fill="white"/>
</mask>
<g mask="url(#mask1_8327_946)">
<path d="M88.3987 124.731C87.2428 116.969 86.2343 105.823 82.8476 95.6818C79.4609 85.5482 73.2617 75.4808 73.2617 75.4808C73.2617 75.4808 94.6715 79.5782 105.553 80.3712C116.435 81.1643 123.216 79.9379 123.216 79.9379L140.584 89.7926L140.878 98.5602L134.532 111.359L128.333 118.335C128.333 118.335 121.773 120.634 121.412 119.914C121.051 119.195 125.594 115.67 126.963 109.707C128.333 103.737 128.693 97.7672 126.455 95.6818C124.224 93.6037 114.705 89.3593 114.705 89.3593L98.8461 97.9875L93.3831 122.47C93.3831 122.47 89.5546 132.493 88.3987 124.731Z" fill="#FBCDB8"/>
</g>
<path d="M114.646 73.2191C114.528 78.5502 112.644 82.8533 120.293 89.1463C127.943 95.4468 125.881 105.257 122.723 110.163C119.564 115.068 118.961 119.062 122.966 117.432C126.971 115.795 129.644 113.313 131.403 109.494C133.163 105.683 138.081 94.9034 140.024 89.6897C141.968 84.4834 118.592 73.0355 118.592 73.0355C118.592 73.0355 114.771 67.888 114.646 73.2191Z" stroke="#62261A" stroke-width="2" stroke-miterlimit="10"/>
<path d="M131.559 45.0875C136.374 48.8839 152.534 59.5756 166.898 58.5696C181.27 57.5636 197.968 49.8166 211.411 28.1249C224.848 6.43325 230.208 0.778898 241.001 1.00654C237.666 5.65475 240.073 7.43916 240.456 21.2296C240.846 35.02 236.039 53.3118 228.485 61.4113C218.737 71.8532 202.466 70.5389 180.725 70.348C157.842 70.1424 145.312 78.9468 145.312 78.9468" fill="#F4893B"/>
<mask id="mask2_8327_946" style="mask-type:luminance" maskUnits="userSpaceOnUse" x="131" y="1" width="111" height="78">
<path d="M131.559 45.0875C136.374 48.8839 152.534 59.5756 166.898 58.5696C181.27 57.5636 197.968 49.8166 211.411 28.1249C224.848 6.43325 230.208 0.778898 241.001 1.00654C237.666 5.65475 240.073 7.43916 240.456 21.2296C240.846 35.02 236.039 53.3118 228.485 61.4113C218.737 71.8532 202.466 70.5389 180.725 70.348C157.842 70.1424 145.312 78.9468 145.312 78.9468" fill="white"/>
<path d="M131.559 45.0875C136.374 48.8839 152.534 59.5756 166.898 58.5696C181.27 57.5636 197.968 49.8166 211.411 28.1249C224.848 6.43325 230.208 0.778898 241.001 1.00654C237.666 5.65475 240.073 7.43916 240.456 21.2296C240.846 35.02 236.039 53.3118 228.485 61.4113C218.737 71.8532 202.466 70.5389 180.725 70.348C157.842 70.1424 145.312 78.9468 145.312 78.9468" fill="white"/>
</mask>
<g mask="url(#mask2_8327_946)">
<path d="M227.543 -0.741117C220.651 1.52792 216.271 7.93841 214.533 12.2195C212.796 16.5005 213.524 17.1688 213.451 21.4278C213.377 25.6942 211.853 33.8084 211.772 35.0788C211.691 36.3491 218.494 28.4771 220.644 27.2215C222.801 25.9584 222.411 27.5226 221.373 31.4732C220.335 35.4238 219.547 39.1542 220.173 40.1602C220.799 41.1662 222.367 37.2377 225.673 34.741C228.978 32.2444 229.155 32.7583 229.103 36.5474C229.052 40.3438 230.348 39.8958 231.989 38.8825C233.624 37.8691 233.668 39.0586 233.749 40.6448C233.83 42.2382 235.501 40.8211 239.057 41.8271C242.613 42.8258 246.758 47.3051 246.758 47.3051L245.33 21.6334L243.092 8.14398L244.093 3.12874L245.124 -0.153629L236.797 -3.78128C236.797 -3.78128 228.382 -1.01281 227.543 -0.741117Z" fill="#FBCDB8" stroke="#62261A" stroke-width="2" stroke-miterlimit="10"/>
</g>
<path d="M131.559 45.0875C136.374 48.8839 152.534 59.5756 166.898 58.5696C181.27 57.5636 197.968 49.8166 211.411 28.1249C224.848 6.43325 230.208 0.778898 241.001 1.00654C237.666 5.65475 240.073 7.43916 240.456 21.2296C240.846 35.02 236.039 53.3118 228.485 61.4113C218.737 71.8532 202.466 70.5389 180.725 70.348C157.842 70.1424 145.312 78.9468 145.312 78.9468" stroke="#62261A" stroke-width="2" stroke-miterlimit="10"/>
<path d="M23.7431 10.0385C23.3603 9.61263 22.6608 9.86232 22.6314 10.4277C22.3811 15.3844 21.4828 30.5846 19.841 33.1327C17.8605 36.1801 9.83554 35.6736 6.65497 35.2917C3.46705 34.9099 -1.05356 37.7076 4.17375 43.3618C7.05982 46.4827 12.8982 50.2128 20.3858 51.8357C26.4304 53.1501 34.2788 52.4011 36.8409 54.2222C42.5762 58.283 48.2746 68.8938 52.4197 72.9619C56.5647 77.03 71.989 83.6023 75.6555 93.8386C79.322 104.068 83.1209 116.367 84.2179 119.283C85.3149 122.198 89.9459 121.897 89.5778 114.48C89.4084 111.036 88.7901 103.928 87.2661 97.5909C85.5064 90.2844 82.8191 83.918 82.8191 83.918C82.8191 83.918 106.438 83.5361 113.999 82.1703C121.553 80.8044 124.409 82.1115 124.409 82.1115C124.409 82.1115 131.617 90.4901 141.556 93.5815C151.488 96.673 158.107 98.9273 158.321 105.69C158.534 112.453 158.218 115.075 158.954 117.226C159.69 119.378 163.298 118.769 165.057 111.998C166.596 106.072 165.823 93.5815 165.632 89.3225C165.595 88.5441 165.352 87.7878 164.94 87.1342C162.547 83.3892 154.006 69.9366 149.162 61.6683C143.5 51.99 136.359 43.8318 123.887 43.5234C111.422 43.2223 106.578 47.7163 88.1495 46.8057C69.7287 45.8878 60.2165 39.1542 55.5708 32.1562C50.9251 25.1508 50.8956 23.08 50.8956 23.08C50.8956 23.08 50.8442 9.57593 49.9239 8.04121C49.011 6.49915 47.0156 8.72416 44.2694 13.3944C41.5306 18.0646 40.3894 19.9444 40.3894 19.9444L31.8712 19.2101L23.7431 10.0385Z" fill="#F4893B"/>
<mask id="mask3_8327_946" style="mask-type:luminance" maskUnits="userSpaceOnUse" x="1" y="7" width="165" height="114">
<path d="M23.7431 10.0385C23.3603 9.61263 22.6608 9.86232 22.6314 10.4277C22.3811 15.3844 21.4828 30.5846 19.841 33.1327C17.8605 36.1801 9.83554 35.6736 6.65497 35.2917C3.46705 34.9099 -1.05356 37.7076 4.17375 43.3618C7.05982 46.4827 12.8982 50.2128 20.3858 51.8357C26.4304 53.1501 34.2788 52.4011 36.8409 54.2222C42.5762 58.283 48.2746 68.8938 52.4197 72.9619C56.5647 77.03 71.989 83.6023 75.6555 93.8386C79.322 104.068 83.1209 116.367 84.2179 119.283C85.3149 122.198 89.9459 121.897 89.5778 114.48C89.4084 111.036 88.7901 103.928 87.2661 97.5909C85.5064 90.2844 82.8191 83.918 82.8191 83.918C82.8191 83.918 106.438 83.5361 113.999 82.1703C121.553 80.8044 124.409 82.1115 124.409 82.1115C124.409 82.1115 131.617 90.4901 141.556 93.5815C151.488 96.673 158.107 98.9273 158.321 105.69C158.534 112.453 158.218 115.075 158.954 117.226C159.69 119.378 163.298 118.769 165.057 111.998C166.596 106.072 165.823 93.5815 165.632 89.3225C165.595 88.5441 165.352 87.7878 164.94 87.1342C162.547 83.3892 154.006 69.9366 149.162 61.6683C143.5 51.99 136.359 43.8318 123.887 43.5234C111.422 43.2223 106.578 47.7163 88.1495 46.8057C69.7287 45.8878 60.2165 39.1542 55.5708 32.1562C50.9251 25.1508 50.8956 23.08 50.8956 23.08C50.8956 23.08 50.8442 9.57593 49.9239 8.04121C49.011 6.49915 47.0156 8.72416 44.2694 13.3944C41.5306 18.0646 40.3894 19.9444 40.3894 19.9444L31.8712 19.2101L23.7431 10.0385Z" fill="white"/>
<path d="M23.7431 10.0385C23.3603 9.61263 22.6608 9.86232 22.6314 10.4277C22.3811 15.3844 21.4828 30.5846 19.841 33.1327C17.8605 36.1801 9.83554 35.6736 6.65497 35.2917C3.46705 34.9099 -1.05356 37.7076 4.17375 43.3618C7.05982 46.4827 12.8982 50.2128 20.3858 51.8357C26.4304 53.1501 34.2788 52.4011 36.8409 54.2222C42.5762 58.283 48.2746 68.8938 52.4197 72.9619C56.5647 77.03 71.989 83.6023 75.6555 93.8386C79.322 104.068 83.1209 116.367 84.2179 119.283C85.3149 122.198 89.9459 121.897 89.5778 114.48C89.4084 111.036 88.7901 103.928 87.2661 97.5909C85.5064 90.2844 82.8191 83.918 82.8191 83.918C82.8191 83.918 106.438 83.5361 113.999 82.1703C121.553 80.8044 124.409 82.1115 124.409 82.1115C124.409 82.1115 131.617 90.4901 141.556 93.5815C151.488 96.673 158.107 98.9273 158.321 105.69C158.534 112.453 158.218 115.075 158.954 117.226C159.69 119.378 163.298 118.769 165.057 111.998C166.596 106.072 165.823 93.5815 165.632 89.3225C165.595 88.5441 165.352 87.7878 164.94 87.1342C162.547 83.3892 154.006 69.9366 149.162 61.6683C143.5 51.99 136.359 43.8318 123.887 43.5234C111.422 43.2223 106.578 47.7163 88.1495 46.8057C69.7287 45.8878 60.2165 39.1542 55.5708 32.1562C50.9251 25.1508 50.8956 23.08 50.8956 23.08C50.8956 23.08 50.8442 9.57593 49.9239 8.04121C49.011 6.49915 47.0156 8.72416 44.2694 13.3944C41.5306 18.0646 40.3894 19.9444 40.3894 19.9444L31.8712 19.2101L23.7431 10.0385Z" fill="white"/>
</mask>
<g mask="url(#mask3_8327_946)">
<path d="M1.0887 35.1742C6.47062 38.1555 17.3081 41.4526 28.0131 43.9786C38.718 46.5046 50.5272 55.6909 56.373 64.8845C62.2114 74.0708 67.4682 83.7124 67.4682 83.7124L66.165 87.1416L42.679 65.5968L24.8325 56.4033C24.8325 56.4033 10.623 51.9386 9.90885 51.8725C9.1947 51.8064 0.698466 45.271 0.698466 45.271L-1.70169 39.8371C-1.70169 39.8371 -4.30059 32.2002 1.0887 35.1742Z" fill="#FBCDB8"/>
<path d="M88.3997 124.731C87.2438 116.969 86.2353 105.823 82.8486 95.6818C79.4619 85.5483 73.2627 75.4808 73.2627 75.4808C73.2627 75.4808 94.6725 79.5782 105.554 80.3713C116.436 81.1644 123.622 81.7078 123.622 81.7078L131.131 90.549L140.879 98.5603L134.533 111.359L128.334 118.335C128.334 118.335 121.774 120.634 121.413 119.914C121.052 119.195 125.595 115.67 126.964 109.707C128.334 103.737 128.694 97.7673 126.456 95.6818C124.225 93.6037 114.706 89.3593 114.706 89.3593L98.8471 97.9875L93.3841 122.47C93.3841 122.47 89.5556 132.493 88.3997 124.731Z" fill="#FBCDB8"/>
<path d="M52.4337 21.5525C50.6299 21.6113 46.7205 21.5453 44.5412 21.4939C43.7976 21.4792 43.2969 20.7302 43.5767 20.04C44.335 18.1528 45.6382 14.8997 46.183 13.5559C46.9782 11.61 49.6286 6.0219 50.6152 9.19414C51.6018 12.3737 52.3968 19.3643 52.3968 19.3643C52.3968 19.3643 55.0032 21.4718 52.4337 21.5525Z" fill="#FBCDB8"/>
</g>
<path d="M23.7431 10.0385C23.3603 9.61263 22.6608 9.86232 22.6314 10.4277C22.3811 15.3844 21.4828 30.5846 19.841 33.1327C17.8605 36.1801 9.83554 35.6736 6.65497 35.2917C3.46705 34.9099 -1.05356 37.7076 4.17375 43.3618C7.05982 46.4827 12.8982 50.2128 20.3858 51.8357C26.4304 53.1501 34.2788 52.4011 36.8409 54.2222C42.5762 58.283 48.2746 68.8938 52.4197 72.9619C56.5647 77.03 71.989 83.6023 75.6555 93.8386C79.322 104.068 83.1209 116.367 84.2179 119.283C85.3149 122.198 89.9459 121.897 89.5778 114.48C89.4084 111.036 88.7901 103.928 87.2661 97.5909C85.5064 90.2844 82.8191 83.918 82.8191 83.918C82.8191 83.918 106.438 83.5361 113.999 82.1703C121.553 80.8044 124.409 82.1115 124.409 82.1115C124.409 82.1115 131.617 90.4901 141.556 93.5815C151.488 96.673 158.107 98.9273 158.321 105.69C158.534 112.453 158.218 115.075 158.954 117.226C159.69 119.378 163.298 118.769 165.057 111.998C166.596 106.072 165.823 93.5815 165.632 89.3225C165.595 88.5441 165.352 87.7878 164.94 87.1342C162.547 83.3892 154.006 69.9366 149.162 61.6683C143.5 51.99 136.359 43.8318 123.887 43.5234C111.422 43.2223 106.578 47.7163 88.1495 46.8057C69.7287 45.8878 60.2165 39.1542 55.5708 32.1562C50.9251 25.1508 50.8956 23.08 50.8956 23.08C50.8956 23.08 50.8442 9.57593 49.9239 8.04121C49.011 6.49915 47.0156 8.72416 44.2694 13.3944C41.5306 18.0646 40.3894 19.9444 40.3894 19.9444L31.8712 19.2101L23.7431 10.0385Z" stroke="#62261A" stroke-width="2" stroke-miterlimit="10"/>
<path fill-rule="evenodd" clip-rule="evenodd" d="M1.14044 36.7531C1.72943 35.3285 4.00435 34.9173 6.22044 35.8352C8.42916 36.7531 9.74703 38.6476 9.15803 40.0648C8.56904 41.4894 6.29413 41.8933 4.07804 40.9827C1.86931 40.0648 0.551448 38.1703 1.14044 36.7531Z" fill="#341717"/>
<path fill-rule="evenodd" clip-rule="evenodd" d="M34.8605 27.6253C36.1637 27.7502 37.0104 30.0267 36.7601 32.7143C36.5024 35.4019 35.236 37.4798 33.9255 37.355C32.6224 37.2302 31.7758 34.9538 32.0335 32.2663C32.2838 29.5787 33.55 27.5005 34.8605 27.6253Z" fill="#21080B"/>
<path fill-rule="evenodd" clip-rule="evenodd" d="M22.7635 25.5033C23.7795 25.6575 24.339 27.5152 24.0224 29.6447C23.6985 31.7816 22.6162 33.3898 21.6001 33.243C20.5841 33.0888 20.0173 31.2309 20.3412 29.1013C20.6578 26.9645 21.7401 25.3564 22.7635 25.5033Z" fill="#21080B"/>
<path fill-rule="evenodd" clip-rule="evenodd" d="M2.73018 36.2314C2.82589 35.9304 3.61359 35.9011 4.48972 36.1728C5.36584 36.4445 5.99913 36.9144 5.90342 37.2155C5.81507 37.5166 5.0272 37.546 4.15107 37.2743C3.27495 37.0026 2.63447 36.5399 2.73018 36.2314Z" fill="#F7F7F7"/>
<path fill-rule="evenodd" clip-rule="evenodd" d="M21.9611 26.6927C22.1746 26.7295 22.241 27.3317 22.1085 28.044C21.9759 28.7562 21.7035 29.2996 21.4899 29.2628C21.2764 29.2188 21.2102 28.6168 21.3427 27.9045C21.4753 27.1922 21.7475 26.6487 21.9611 26.6927Z" fill="#F7F7F7"/>
<path fill-rule="evenodd" clip-rule="evenodd" d="M33.7263 29.351C33.9692 29.4098 34.006 30.1073 33.8145 30.9077C33.6305 31.7081 33.277 32.3176 33.0414 32.2589C32.7985 32.2001 32.7618 31.5026 32.9532 30.7022C33.1446 29.9018 33.4907 29.2923 33.7263 29.351Z" fill="#F7F7F7"/>
<path d="M33.5493 19.3643L29.1318 19.0927" stroke="#62261A" stroke-width="2" stroke-miterlimit="10" stroke-linecap="round"/>
<path d="M83.3048 85.0781L81.2949 80.3639" stroke="#62261A" stroke-width="2" stroke-miterlimit="10" stroke-linecap="round"/>
</svg>
