<svg width="141" height="185" viewBox="0 0 141 185" fill="none" xmlns="http://www.w3.org/2000/svg">
<path d="M106.305 7.70556L114.045 2.84558C114.285 2.69558 114.595 2.72552 114.815 2.90552L122.206 9.20556C122.386 9.35556 122.475 9.58556 122.445 9.82556L118.305 44.6255C118.255 45.0955 117.825 45.4355 117.355 45.3955L100.436 43.8855L58.0654 39.1255C58.0654 39.1255 51.0752 41.6656 60.2852 73.0856C79.9652 80.3856 71.6953 66.1755 71.6953 66.1755C71.6953 66.1755 137.636 63.0355 139.476 117.995C141.436 176.865 94.5652 181.786 68.0552 183.056C41.5552 184.326 54.8853 164.336 54.8853 164.336L108.686 137.836L85.9956 94.8256L30.7656 78.9556C30.7656 78.9556 29.8154 32.6155 29.8154 30.2355C29.8154 27.8555 94.7153 7.54553 94.7153 7.54553L106.305 7.70556Z" fill="#E94380" stroke="#282323" stroke-width="2" stroke-miterlimit="10"/>
<path d="M2.37564 1.50545C1.65564 1.50545 1.08539 2.11553 1.11539 2.83553C1.43539 10.0855 3.0157 45.1255 3.6857 57.6555C4.1357 66.1555 5.68578 89.7755 6.01578 94.6655C6.04578 95.1955 6.41545 95.6655 6.92545 95.8255L46.7458 108.385C47.1058 108.495 47.4953 108.435 47.8053 108.235C49.5353 107.095 55.7854 103.445 64.4254 103.915C74.6454 104.475 82.8257 112.655 82.4557 123.805C82.0857 134.955 75.7654 142.386 65.1754 142.946C54.8954 143.486 48.6453 137.385 44.0353 131.245C43.7753 130.895 43.3354 130.736 42.9054 130.816C29.0354 133.536 7.52553 139.926 2.75553 141.356C2.22553 141.516 1.95543 142.086 2.15543 142.596C4.60543 148.726 20.0456 182.256 64.7956 183.086C113.946 184.006 130.215 150.195 130.405 124.175C130.595 98.1555 117.766 71.0255 75.3957 66.5655C59.8557 64.9255 50.6755 68.1755 48.1955 69.2255C47.8555 69.3655 47.4755 69.1455 47.4455 68.7755L45.0456 43.8955C44.9756 43.2055 45.5355 42.6054 46.2355 42.6154L109.035 44.0755C109.035 44.0755 111.936 35.5355 113.276 23.2955C114.256 14.3555 114.405 6.32546 114.425 3.51546C114.425 2.91546 113.956 2.41545 113.356 2.38545C108.566 2.13545 88.6653 1.11546 76.5753 1.01546C63.3253 0.905459 11.3556 1.41545 2.37564 1.50545Z" fill="#FF7BAC"/>
<mask id="mask0_8338_1469" style="mask-type:luminance" maskUnits="userSpaceOnUse" x="1" y="1" width="130" height="183">
<path d="M2.37564 1.50545C1.65564 1.50545 1.08539 2.11553 1.11539 2.83553C1.43539 10.0855 3.0157 45.1255 3.6857 57.6555C4.1357 66.1555 5.68578 89.7755 6.01578 94.6655C6.04578 95.1955 6.41545 95.6655 6.92545 95.8255L46.7458 108.385C47.1058 108.495 47.4953 108.435 47.8053 108.235C49.5353 107.095 55.7854 103.445 64.4254 103.915C74.6454 104.475 82.8257 112.655 82.4557 123.805C82.0857 134.955 75.7654 142.386 65.1754 142.946C54.8954 143.486 48.6453 137.385 44.0353 131.245C43.7753 130.895 43.3354 130.736 42.9054 130.816C29.0354 133.536 7.52553 139.926 2.75553 141.356C2.22553 141.516 1.95543 142.086 2.15543 142.596C4.60543 148.726 20.0456 182.256 64.7956 183.086C113.946 184.006 130.215 150.195 130.405 124.175C130.595 98.1555 117.766 71.0255 75.3957 66.5655C59.8557 64.9255 50.6755 68.1755 48.1955 69.2255C47.8555 69.3655 47.4755 69.1455 47.4455 68.7755L45.0456 43.8955C44.9756 43.2055 45.5355 42.6054 46.2355 42.6154L109.035 44.0755C109.035 44.0755 111.936 35.5355 113.276 23.2955C114.256 14.3555 114.405 6.32546 114.425 3.51546C114.425 2.91546 113.956 2.41545 113.356 2.38545C108.566 2.13545 88.6653 1.11546 76.5753 1.01546C63.3253 0.905459 11.3556 1.41545 2.37564 1.50545Z" fill="white"/>
<path d="M2.37564 1.50545C1.65564 1.50545 1.08539 2.11553 1.11539 2.83553C1.43539 10.0855 3.0157 45.1255 3.6857 57.6555C4.1357 66.1555 5.68578 89.7755 6.01578 94.6655C6.04578 95.1955 6.41545 95.6655 6.92545 95.8255L46.7458 108.385C47.1058 108.495 47.4953 108.435 47.8053 108.235C49.5353 107.095 55.7854 103.445 64.4254 103.915C74.6454 104.475 82.8257 112.655 82.4557 123.805C82.0857 134.955 75.7654 142.386 65.1754 142.946C54.8954 143.486 48.6453 137.385 44.0353 131.245C43.7753 130.895 43.3354 130.736 42.9054 130.816C29.0354 133.536 7.52553 139.926 2.75553 141.356C2.22553 141.516 1.95543 142.086 2.15543 142.596C4.60543 148.726 20.0456 182.256 64.7956 183.086C113.946 184.006 130.215 150.195 130.405 124.175C130.595 98.1555 117.766 71.0255 75.3957 66.5655C59.8557 64.9255 50.6755 68.1755 48.1955 69.2255C47.8555 69.3655 47.4755 69.1455 47.4455 68.7755L45.0456 43.8955C44.9756 43.2055 45.5355 42.6054 46.2355 42.6154L109.035 44.0755C109.035 44.0755 111.936 35.5355 113.276 23.2955C114.256 14.3555 114.405 6.32546 114.425 3.51546C114.425 2.91546 113.956 2.41545 113.356 2.38545C108.566 2.13545 88.6653 1.11546 76.5753 1.01546C63.3253 0.905459 11.3556 1.41545 2.37564 1.50545Z" fill="white"/>
</mask>
<g mask="url(#mask0_8338_1469)">
<path d="M72.8355 66.0255C72.8355 66.0255 124.655 79.1555 121.305 126.555C118.925 160.265 93.9056 183.645 60.6456 182.535C27.3856 181.425 73.7657 194.106 73.7657 194.106C73.7657 194.106 118.726 181.785 127.226 166.885C135.726 151.975 142.005 125.366 138.925 109.476C135.855 93.5855 118.485 75.9655 108.255 70.6755C98.0355 65.3755 72.8355 66.0255 72.8355 66.0255Z" fill="#E16E98"/>
<path d="M116.195 9.03546C116.065 8.68546 113.686 7.16545 113.686 7.52545C113.726 12.1555 108.765 30.5155 98.5254 36.2255C85.3054 43.5855 48.6553 42.7454 48.6553 42.7454L107.655 48.4255L118.605 23.8854L116.195 9.03546Z" fill="#E16E98"/>
</g>
<path d="M2.37564 1.50545C1.65564 1.50545 1.08539 2.11553 1.11539 2.83553C1.43539 10.0855 3.0157 45.1255 3.6857 57.6555C4.1357 66.1555 5.68578 89.7755 6.01578 94.6655C6.04578 95.1955 6.41545 95.6655 6.92545 95.8255L46.7458 108.385C47.1058 108.495 47.4953 108.435 47.8053 108.235C49.5353 107.095 55.7854 103.445 64.4254 103.915C74.6454 104.475 82.8257 112.655 82.4557 123.805C82.0857 134.955 75.7654 142.386 65.1754 142.946C54.8954 143.486 48.6453 137.385 44.0353 131.245C43.7753 130.895 43.3354 130.736 42.9054 130.816C29.0354 133.536 7.52553 139.926 2.75553 141.356C2.22553 141.516 1.95543 142.086 2.15543 142.596C4.60543 148.726 20.0456 182.256 64.7956 183.086C113.946 184.006 130.215 150.195 130.405 124.175C130.595 98.1555 117.766 71.0255 75.3957 66.5655C59.8557 64.9255 50.6755 68.1755 48.1955 69.2255C47.8555 69.3655 47.4755 69.1455 47.4455 68.7755L45.0456 43.8955C44.9756 43.2055 45.5355 42.6054 46.2355 42.6154L109.035 44.0755C109.035 44.0755 111.936 35.5355 113.276 23.2955C114.256 14.3555 114.405 6.32546 114.425 3.51546C114.425 2.91546 113.956 2.41545 113.356 2.38545C108.566 2.13545 88.6653 1.11546 76.5753 1.01546C63.3253 0.905459 11.3556 1.41545 2.37564 1.50545Z" stroke="#282323" stroke-width="2" stroke-miterlimit="10"/>
</svg>
