<svg width="137" height="192" viewBox="0 0 137 192" fill="none" xmlns="http://www.w3.org/2000/svg">
<path fill-rule="evenodd" clip-rule="evenodd" d="M65.7158 22.8405C76.7558 22.8405 85.7158 31.2005 85.7158 41.5105C85.7158 51.8205 76.7558 60.1705 65.7158 60.1705C54.6658 60.1705 45.7061 51.8205 45.7061 41.5105C45.7061 31.2005 54.6658 22.8405 65.7158 22.8405ZM70.1758 30.7004C76.5658 30.7004 81.7559 35.5405 81.7559 41.5105C81.7559 47.4705 76.5658 52.3104 70.1758 52.3104C63.7758 52.3104 58.5957 47.4705 58.5957 41.5105C58.5957 35.5405 63.7758 30.7004 70.1758 30.7004Z" fill="#69BAE9" stroke="#282323" stroke-width="2" stroke-miterlimit="10"/>
<path fill-rule="evenodd" clip-rule="evenodd" d="M83.0957 129.11C83.1157 128.72 83.1157 128.34 83.1157 127.95C83.1157 114.63 73.3261 103.83 61.2461 103.83C49.1661 103.83 39.376 114.63 39.376 127.95C39.376 141.27 49.1661 152.07 61.2461 152.07C70.0461 152.07 77.636 146.34 81.106 138.08C82.386 135.73 83.1157 132.981 83.1157 130.041C83.1157 129.731 83.1157 129.42 83.0957 129.11ZM83.0957 129.11C82.9557 132.3 82.256 135.33 81.106 138.08C78.626 142.62 74.1161 145.661 68.9561 145.661C61.1361 145.661 54.7959 138.671 54.7959 130.041C54.7959 121.421 61.1361 114.421 68.9561 114.421C76.4961 114.421 82.6557 120.92 83.0957 129.11Z" fill="#69BAE9"/>
<path d="M83.0957 129.11C83.1157 128.72 83.1157 128.34 83.1157 127.95C83.1157 114.63 73.3261 103.83 61.2461 103.83C49.1661 103.83 39.376 114.63 39.376 127.95C39.376 141.27 49.1661 152.07 61.2461 152.07C70.0461 152.07 77.636 146.34 81.106 138.08M83.0957 129.11C83.1157 129.42 83.1157 129.731 83.1157 130.041C83.1157 132.981 82.386 135.73 81.106 138.08M83.0957 129.11C82.9557 132.3 82.256 135.33 81.106 138.08M83.0957 129.11C82.6557 120.92 76.4961 114.421 68.9561 114.421C61.1361 114.421 54.7959 121.421 54.7959 130.041C54.7959 138.671 61.1361 145.661 68.9561 145.661C74.1161 145.661 78.626 142.62 81.106 138.08" stroke="#282323" stroke-width="2" stroke-miterlimit="10"/>
<path fill-rule="evenodd" clip-rule="evenodd" d="M71.4161 1.0005C112.366 1.1505 116.266 38.0505 115.666 46.4505C115.066 54.8505 111.806 72.2105 100.366 82.6205C129.836 97.0505 134.786 122.05 135.356 139.12C135.886 155.08 128.986 191.43 77.8258 190.46C26.6558 189.49 9.12602 167.121 7.79602 136.151C6.46602 105.191 29.1961 88.6206 46.3761 83.3006C28.7161 73.9806 24.1559 54.8405 24.4659 44.6205C24.7759 34.3905 30.4561 0.850502 71.4161 1.0005ZM70.4762 25.6105C77.1662 25.6105 81.9962 36.9205 81.9962 42.7805C81.9962 48.6405 76.8659 56.9805 70.1759 56.9805C63.4859 56.9805 49.0861 48.4405 49.0861 42.5805C49.0861 36.7205 63.7862 25.6105 70.4762 25.6105ZM65.7159 107.08C75.6559 107.08 85.4562 120.16 85.4562 129.84C85.4562 139.52 78.8261 150.56 68.8761 150.56C58.9361 150.56 43.4562 142.15 43.4562 132.47C43.4562 122.79 55.7659 107.08 65.7159 107.08Z" fill="#69BAE9" stroke="#282323" stroke-width="2" stroke-miterlimit="10"/>
<path d="M100.365 82.6205L77.1953 84.1305" stroke="#282323" stroke-width="2" stroke-miterlimit="10"/>
<path fill-rule="evenodd" clip-rule="evenodd" d="M64.6759 1.0005C105.626 1.1505 109.536 38.0505 108.936 46.4505C108.336 54.8505 105.466 68.6105 89.7857 84.0305C127.406 101.381 125.866 129.241 125.866 140.041C125.866 150.841 122.246 191.43 71.086 190.46C19.926 189.49 2.38576 167.121 1.05576 136.151C-0.274241 105.191 22.4658 88.6206 39.6358 83.3006C21.9758 73.9806 17.4162 54.8405 17.7262 44.6205C18.0362 34.3905 23.7159 0.850502 64.6759 1.0005ZM63.6061 31.7805C70.2961 31.7805 75.256 36.9205 75.256 42.7805C75.256 48.6405 69.8359 53.3805 63.1559 53.3805C56.4659 53.3805 51.046 48.6405 51.046 42.7805C51.046 36.9205 56.9161 31.7805 63.6061 31.7805ZM62.4259 112.31C72.3659 112.31 78.7159 120.16 78.7159 129.84C78.7159 139.52 72.9159 146.781 62.9659 146.781C53.0259 146.781 45.8858 139.52 45.8858 129.84C45.8858 120.16 52.4759 112.31 62.4259 112.31Z" fill="#9AD1DD"/>
<mask id="mask0_8338_1470" style="mask-type:luminance" maskUnits="userSpaceOnUse" x="1" y="1" width="125" height="190">
<path d="M64.6759 1.0005C105.626 1.1505 109.536 38.0505 108.936 46.4505C108.336 54.8505 105.466 68.6105 89.7857 84.0305C127.406 101.381 125.866 129.241 125.866 140.041C125.866 150.841 122.246 191.43 71.086 190.46C19.926 189.49 2.38576 167.121 1.05576 136.151C-0.274241 105.191 22.4658 88.6206 39.6358 83.3006C21.9758 73.9806 17.4162 54.8405 17.7262 44.6205C18.0362 34.3905 23.7159 0.850502 64.6759 1.0005ZM63.6061 31.7805C70.2961 31.7805 75.256 36.9205 75.256 42.7805C75.256 48.6405 69.8359 53.3805 63.1559 53.3805C56.4659 53.3805 51.046 48.6405 51.046 42.7805C51.046 36.9205 56.9161 31.7805 63.6061 31.7805ZM62.4259 112.31C72.3659 112.31 78.7159 120.16 78.7159 129.84C78.7159 139.52 72.9159 146.781 62.9659 146.781C53.0259 146.781 45.8858 139.52 45.8858 129.84C45.8858 120.16 52.4759 112.31 62.4259 112.31Z" fill="white"/>
<path d="M64.6759 1.0005C105.626 1.1505 109.536 38.0505 108.936 46.4505C108.336 54.8505 105.466 68.6105 89.7857 84.0305C127.406 101.381 125.866 129.241 125.866 140.041C125.866 150.841 122.246 191.43 71.086 190.46C19.926 189.49 2.38576 167.121 1.05576 136.151C-0.274241 105.191 22.4658 88.6206 39.6358 83.3006C21.9758 73.9806 17.4162 54.8405 17.7262 44.6205C18.0362 34.3905 23.7159 0.850502 64.6759 1.0005ZM63.6061 31.7805C70.2961 31.7805 75.256 36.9205 75.256 42.7805C75.256 48.6405 69.8359 53.3805 63.1559 53.3805C56.4659 53.3805 51.046 48.6405 51.046 42.7805C51.046 36.9205 56.9161 31.7805 63.6061 31.7805ZM62.4259 112.31C72.3659 112.31 78.7159 120.16 78.7159 129.84C78.7159 139.52 72.9159 146.781 62.9659 146.781C53.0259 146.781 45.8858 139.52 45.8858 129.84C45.8858 120.16 52.4759 112.31 62.4259 112.31Z" fill="white"/>
</mask>
<g mask="url(#mask0_8338_1470)">
<path d="M62.7559 0.870483C62.7559 0.870483 102.266 4.15046 104.076 43.1005C105.306 69.6405 90.5459 83.3304 90.5459 83.3304L101.266 78.0704L112.896 47.7305L108.346 23.0305L90.5459 5.23047L75.8359 1.42053L62.7559 0.870483Z" fill="#69BAE9"/>
<path d="M3.78611 153.141C3.78611 153.141 18.4663 183.92 59.5063 184.47C115.736 185.22 125.576 135.08 125.576 135.08C125.576 135.08 125.606 175.061 103.056 186.651C83.8961 196.501 40.3162 197.77 25.3862 188.08C15.8762 181.91 0.126424 164.891 0.606424 160.291C1.08642 155.681 3.78611 153.141 3.78611 153.141Z" fill="#69BAE9"/>
</g>
<path d="M64.6759 1.0005C105.626 1.1505 109.536 38.0505 108.936 46.4505C108.336 54.8505 105.466 68.6105 89.7857 84.0305C127.406 101.381 125.866 129.241 125.866 140.041C125.866 150.841 122.246 191.43 71.086 190.46C19.926 189.49 2.38576 167.121 1.05576 136.151C-0.274241 105.191 22.4658 88.6206 39.6358 83.3006C21.9758 73.9806 17.4162 54.8405 17.7262 44.6205C18.0362 34.3905 23.7159 0.850502 64.6759 1.0005ZM63.6061 31.7805C70.2961 31.7805 75.256 36.9205 75.256 42.7805C75.256 48.6405 69.8359 53.3805 63.1559 53.3805C56.4659 53.3805 51.046 48.6405 51.046 42.7805C51.046 36.9205 56.9161 31.7805 63.6061 31.7805ZM62.4259 112.31C72.3659 112.31 78.7159 120.16 78.7159 129.84C78.7159 139.52 72.9159 146.781 62.9659 146.781C53.0259 146.781 45.8858 139.52 45.8858 129.84C45.8858 120.16 52.4759 112.31 62.4259 112.31Z" stroke="#282323" stroke-width="2" stroke-miterlimit="10"/>
</svg>
